<?xml version="1.0" encoding="utf-8"?>
<!-- Generator: Adobe Illustrator 27.4.0, SVG Export Plug-In . SVG Version: 6.00 Build 0)  -->
<svg version="1.1" id="Layer_2" xmlns="http://www.w3.org/2000/svg" xmlns:xlink="http://www.w3.org/1999/xlink" x="0px" y="0px"
	 viewBox="0 0 372.71 517.27" style="enable-background:new 0 0 372.71 517.27;" xml:space="preserve">
<style type="text/css">
	.st0{fill:none;stroke:#000000;stroke-width:0.5;stroke-miterlimit:10;}
	.st1{stroke:#000000;stroke-width:0.5;stroke-miterlimit:10;}
</style>
<path class="st0" d="M108.99,166.73c4.38-0.42,6.07-7.06,0.99-8.33c-5.08-1.27-2.26,8.33-2.26,8.33"/>
<path class="st0" d="M103.62,147.11c0,0-3.25-4.8,0-5.65S108.42,147.67,103.62,147.11z"/>
<path class="st0" d="M84.56,191.01c0,0,3.95,14.96,7.76,10.73c3.81-4.24,12.42-25.13,7.98-25.41c1.34-3.25,7.84-8.05,7.84-8.05
	s-3.11,10.59,0,8.75c3.11-1.84,6.78-3.25,8.61-4.24c1.84-0.99,8.47-13.69,15.53-17.79c7.06-4.09,9.6-9.32,9.6-9.32
	s-14.82,22.02-3.25,15.81c6.49-1.98,8.89-1.41,6.35-3.95c2.82,0.42,8.89,2.54,12.56-0.14c3.67-2.68,38.92-28.47,13.18-14.16
	c4.71-7.72,27.11-22.21,13.74-2.82c-3.01,2.07-2.12,2.64-2.92,3.72c-0.8,1.08-2.05,1.76-2.54,3.53c-1.2,0.64-5.15,2.05-6.56,4.73
	c-1.62,0.21-4.16,3.6-8.12,4.31c-3.95,0.71-4.94,3.53-7.06,4.24c-2.12,0.71-8.33-0.71-11.15,0.85c-2.82,1.55-12.42,10.16-1.55,7.62
	c-3.81,1.84-5.08,2.96-6.78,3.81c-1.69,0.85-2.82-1.41-5.93-1.41c-3.11,0-5.93,4.8-9.04,5.08c-3.11,0.28-5.65-0.28-8.33,2.4
	c-2.68,2.68-4.94,3.81-2.96,5.93c-2.54,1.27-5.08,1.41-5.79,7.48c-0.71,6.07,0.14,7.91,0.14,7.91s-3.86-13.32-4.61-0.52
	c-0.75,12.8-3.2,4.89-4.71,6.59c-1.51,1.69-6.59,9.22,0.19,11.67c3.39,0.38-0.42,3.2,3.55,2.82s7.18-4.33,8.49-2.64
	c1.32,1.69-1.86,5.46-1.86,5.46l-0.27,3.01h-7.85c0,0-8.85,14.12-0.94,11.11c7.91-3.01,9.05-5.46,9.05-5.46s-6.98,13.93-1.34,14.12
	c5.65,0.19,14.49-4.89,14.49-4.89s-18.45,16.19-5.08,14.12c1.32-2.82,1.32-2.82,1.32-2.82s6.02,1.51,18.82-4.33
	c-11.29,6.21-27.48,19.01-11.29,24.47c16.19,5.46,17.88-1.13,22.02-2.64c4.14-1.51,21.08-10.16,25.98-14.31
	c-8.09,6.59-38.67,21.27-35.24,21.65c3.43,0.38,16.98-5.08,30.54-13.74c13.55-8.66,19.95-9.22,19.95-9.22s-6.85,10.92,1.56,7.53
	c8.41-3.39,18.39-16,19.71-19.2s9.41-13.93,9.6-17.51s4.33-3.2,4.52-5.84s5.46-9.22-8.47-13.74c-6.59-1.51-6.21-4.14-6.21-4.14
	s3.76,4.33,14.12,4.33s14.87,8.85,6.4,19.39c-8.47,10.54-19.76,23.53-22.02,26.16c-2.26,2.64-1.32,2.82,0.75,1.88
	c-1.88,2.26-9.6,11.29-4.33,12.99s12.99-3.58,18.26-6.21c5.27-2.64,10.35-2.07,13.93-1.69c3.58,0.38,7.34,2.64,3.95,6.21
	c-3.39,3.58-2.81,5.65,1.33,4.71c4.13-0.94,4.13-0.56,5.45-3.58c-0.19,3.01-1.69,5.3-1.88,9.8c-0.19,4.5-5.46,3.94-8.66,4.69
	s-5.27,4.33-1.13,7.72c4.14,3.39,8.66,9.22,5.84,13.74c-1.88-1.88-1.51-4.14-3.95-5.27c0.56,5.84-1.88,8.85-2.82,12.24
	c-0.94,3.39-0.19,6.96-0.19,6.96s-13.93,8.09-17.13,17.51s3.2,6.4,3.2,6.4s1.32-3.76,6.78-5.46c-2.82,3.95-2.07,9.6,0.94,9.22
	c3.01-0.38,9.98-2.64,11.86-5.65c0.56,4.33-1.69,11.11,9.04,4.71c0.75,2.07,0,3.95,0,3.95h-3.01c0,0-5.65-1.32-8.28,0
	c-2.64,1.32-12.61,13.55-13.55,19.01c-0.94-6.02,0.94-17.32-3.2-14.12c-4.14,3.2-18.26,24.47-17.32,32
	c1.69-15.62,17.69-35.58,6.02-33.88s-30.12,30.31-31.06,39.15s5.08,7.34,11.86,3.39c6.78-3.95,8.66-1.13,8.66-1.13
	s3.01,12.05-8.28,22.4c2.45-5.84,11.29-22.4-3.95-11.67c-15.25,10.73-22.21,11.11-21.65-2.45c-2.64,0.75-3.39-4.52,3.39-13.93
	c0.19-2.82,25.1-34.45,31.65-41.98c6.56-7.53,19.73-21.65,22.18-26.16s13.18-25.79,1.88-23.72c-6.78,0.75-15.25-5.84-20.71,1.88
	c-5.46,7.72-8.85,11.86-6.21,18.64c-3.58-4.52-8.28-21.27-12.42-18.82c-4.14,2.45-7.15,6.96-7.15,6.96s5.84-19.2-7.53-4.33
	c-5.27-2.82-20.33-15.62-32.56-4.89c-12.24,10.73,9.41,14.31,12.61,12.61c-10.54,3.39-37.84-3.76-33.13-19.58
	c2.45-10.92-0.75-20.96-8.85-14.06s-12.05,10.67-12.05,10.67s-8.28-12.05-11.29-13.93c5.65,0.56,17.88-0.56,17.88-10.16
	s-6.96-9.04-9.79-8.09c-2.82,0.94-11.86,0.94-9.79-12.24c2.07-13.18,3.2-13.55,0.75-19.2C80.19,213.65,84.56,191.01,84.56,191.01z"
	/>
<path class="st0" d="M128.94,234.16v2.82l10.73-4.89C139.67,232.09,135.34,228.89,128.94,234.16z"/>
<path class="st1" d="M149.27,217.22c0,0-0.94-2.64,3.95-1.32c4.89,1.32,5.84,0.47,5.84,0.47s-4.89,1.78-6.21,4.61
	C150.21,221.74,149.27,217.22,149.27,217.22z"/>
<path class="st1" d="M192.19,154.16c0,0-2.07,9.13,0.75,12.56c1.69,4.38,0,7.2,0,7.2s-5.08,0.56-6.59,2.26
	c-1.51,1.69,2.26-7.53,2.45-11.01S188.42,157.55,192.19,154.16z"/>
<path class="st0" d="M197.36,176.39c0,0,3.67,14.19,22.02,5.72c-6.49,4.24-11.86,12.99-9.88,16.66
	c-6.49,1.41-15.11,2.82-23.51,11.86C193.69,199.62,199.62,198.91,197.36,176.39z"/>
<path d="M186,220.52c0,0,0.42,8.33,3.85,2.68c3.42-5.65,11.75-16.52,11.75-16.52l1.69,1.13l-11.44,18.07c0,0-4.31,12,6.95,3.11
	c-4.55,6.92-13.58,12.28-18.53,15.39c-1.27-0.99-1.69-2.12-1.69-2.12S185.08,228.42,186,220.52z"/>
<path class="st0" d="M167.72,285.6c0,0,2.68,0.99,5.51-2.26c2.82-3.25,12.99-11.58,17.72-10.45c4.73,1.13,5.86,2.54,4.02,5.36
	c-1.84,2.82,0.42,5.79,8.33,2.26c-5.08,3.53-13.84,10.02-16.94,10.31c-3.11,0.28-6.35-1.41-2.68-6.64c3.67-5.22-7.2-0.99-7.2-0.99
	s-2.96,3.25-4.94,4.52c-1.98,1.27-6.78,2.26-8.19-1.55C163.62,283.34,167.72,285.6,167.72,285.6z"/>
<path d="M100.31,365.93c0,0-1.2,18.64,7.84,7.06s16.94-40.94,17.22-44.33c0,4.8-0.19,11.58,3.58,5.36
	c3.76-6.21,8.56-16.94,8.56-16.94h3.39l-9.88,19.48c0,0-1.13,4.8,5.36-0.56c2.82-1.13,1.69,3.11-0.85,3.95
	c-2.54,0.85-5.65,2.38-8.47,6.98S86.4,426.92,86.4,426.92s1.98-14.68,8.47-29.36C101.36,382.87,100.94,371.01,100.31,365.93z"/>
<path class="st0" d="M136.28,121.22c0,0,3.39,1.51,6.21,0c2.82-1.51-0.94,3.01-0.94,3.01s-1.69,1.51-3.01,3.01s-4.52-0.31-3.39-3.17
	S136.28,121.22,136.28,121.22z"/>
<path class="st0" d="M166.31,115.48c0,0-11.58,4.24-9.32,0c-3.11,3.11-3.39,4.09-5.93,5.43s-1.41,7.6,1.13,6.87
	c2.54-0.73,8.97,2.66,12.53,1.25c3.56-1.41,9.21-6.15,13.87-6.6c4.66-0.46,4.94,1.52,2.96,3.5c-1.98,1.98-3.32,3.59-0.56,4.83
	s9.95-5.39,9.95-5.39s-5.23,0-1.1-5.65c4.13-5.65,13.17-12.71,18.81-12.99c5.65-0.28,12.42-0.28,16.09-3.67s9.32-6.49,9.6-10.45
	c0.28-3.95,4.8-4.52,4.8-4.52s-1.69-5.36,4.8-4.8c6.49,0.56,16.66-2.54,16.66-2.54s-5.36,11.01,3.11,8.47
	c7.91-5.08,9.88-11.29,3.39-9.88c7.34-1.98,8.35-5.93,3.89-7.62c-4.46-1.69-3.61-4.52-0.22-5.65c3.39-1.13,7.34-9.04,0.56-11.01
	c-6.49,1.98-2.82,1.69-5.93,3.67c-3.11,1.98-3.95,8.75-5.93,11.58c-1.98,2.82-8.55,4.52-11.62,1.69c2.58,4.24,3.43,1.98-4.19,4.52
	c-7.62,2.54-14.12,3.67-13.84,6.49c0.28,2.82,3.11,8.09-0.28,9.97s-13.55,11.49-13.27,4.43c3.11-5.93,10.73-10.45,3.11-13.27
	c-7.62-2.82-4.79,4.52-7.05,7.62c-2.27,3.11-13.84,12.42-18.64,10.16c2.54,1.69,5.08,0.56,2.54,3.95c-2.54,3.39-4.8,1.69-8.75,0.28
	c-3.95-1.41-7.06-3.95-11.29,1.41C171.95,112.94,166.31,115.48,166.31,115.48z"/>
<path class="st0" d="M208.66,127.79c0,0-6.21-3.55-2.26-8.64c3.95-5.08,0.3-5.93,5.94-6.21c5.64-0.28,1.97,2.54,1.69,4.52
	c-0.28,1.98,0.56,6.54,4.24,10.33c1.69,6.33-2.73,12.4-6.59,13.6c-3.86,1.2-6.47,2.89-8.98,4.59c-2.51,1.69-5.89-7.34-1.94-8.19
	C204.71,136.94,215.43,137.56,208.66,127.79z"/>
<path class="st0" d="M210.07,67.48c0,0-3.67-1.13,1.13-5.65s0.42-7.91-2.47-6.78S203.58,60.99,210.07,67.48z"/>
<path class="st0" d="M197.65,30.49c0,0,0.07-5.93,8.22-4.24c3.63-3.95,7.5-1.41,3.73,4.24s-3.73,6.21-3.73,6.21s-5.62,0.09-7.06,1.6
	c-2.38,1.13-3.98-1.6-1.16-2.45c2.82-0.85,1.16-3.2,1.16-3.2L197.65,30.49z"/>
<path class="st1" d="M185.22,426.92c0,0-36.14,55.34,32.75-13.18C205.93,436.71,131.76,501.83,185.22,426.92z"/>
</svg>
