<?xml version="1.0" encoding="utf-8"?>
<!-- Generator: Adobe Illustrator 27.4.0, SVG Export Plug-In . SVG Version: 6.00 Build 0)  -->
<svg version="1.1" id="Layer_2" xmlns="http://www.w3.org/2000/svg" xmlns:xlink="http://www.w3.org/1999/xlink" x="0px" y="0px"
	 viewBox="0 0 497.29 592.83" style="enable-background:new 0 0 497.29 592.83;" xml:space="preserve">
<style type="text/css">
	.st0{fill:none;stroke:#000000;stroke-width:0.5;stroke-miterlimit:10;}
</style>
<g>
	<path d="M157.48,445.52c-2.62,0-5.89-2.39-6.52-4.07c-0.63-1.68,0.51-2.69,1.51-3.58c0.8-0.71,1.56-1.38,1.56-2.35
		c0-2.12,1.67-24.87,4.12-36.44c2.35-11.06,8.82-17.56,14.85-22.46c4.06-3.3,9.01-15.47,12.99-25.25c1.36-3.33,2.64-6.48,3.76-8.99
		c3.07-6.86,1.7-9.37,0.11-12.28c-0.7-1.28-1.42-2.6-1.84-4.39c-0.45-1.89-2.01-2.76-3.83-3.77c-3.18-1.77-7.05-3.92-6.51-12.59
		c-1.28,2.95-3.67,5.18-6,7.35c-0.82,0.77-1.68,1.56-2.47,2.38c-3.79,3.9-25.27,10.48-37.9,13c-7.52,1.5-14.49,7.04-22.57,13.45
		c-4.71,3.74-10.05,7.98-16.14,11.92c-11.22,7.24-15.77,15.31-21.04,24.64c-1.84,3.25-3.72,6.59-5.99,10.08
		c-0.99,1.77-1.88,3.09-2.47,3.62l-1.65,1.47l1.28-1.8c0.82-1.15,1.59-2.29,2.32-3.4c2.87-5.1,6.78-14.25,6.39-17.67
		c-0.38-3.33-1.05-3.28-3.56-3.1c-0.68,0.05-1.45,0.1-2.38,0.1c-4.01,0-25.61,28.72-27.32,33.56c-0.65,1.83-0.33,3.52,0.81,4.42
		c0.91,0.71,3.72,1.89,10.14-2.39l0.28,0.41c-1.6,1.14-1.82,1.78-2.29,3.18c-0.55,1.62-1.47,4.32-5.37,9.89
		c-3.99,5.69-8.86,8.72-13.04,8.09c-2.98-0.45-5.28-2.71-6.46-6.36c-3-9.28,8.07-26.66,15.76-35.43
		c8.24-9.4,30.84-23.58,40.49-28.98c7.4-4.14,15.68-16.54,20.62-23.95c0.85-1.28,1.6-2.39,2.21-3.27
		c3.73-5.36,3.83-10.79,0.27-14.89c-1.26-1.46-3.8-1.78-6.96-0.89c-3.41,0.96-6.51,3.08-6.77,4.63l-0.02,0.1
		c-0.51,3.07-1.15,6.9,6.01,8.63l0.99,0.24l-0.99,0.25c-2.91,0.73-6.99,4.68-8.35,6.6c-0.61,0.86-0.66,1.9-0.73,3.21
		c-0.06,1.3-0.14,2.77-0.79,4.45c-0.49,1.26-1.45,1.95-2.62,1.86c-1.78-0.12-3.56-1.86-4.04-3.95c-0.43-1.85,1.03-2.72,2.44-3.57
		c1.4-0.84,2.84-1.7,2.96-3.54c0.22-3.36-2.03-4.13-5.77-5.4c-0.41-0.14-0.84-0.29-1.28-0.44c-3.48-1.23-7.44,1.69-12.46,5.39
		c-1.13,0.83-2.29,1.69-3.53,2.56c-5.8,4.08-12.94,10.93-14.06,20.42l-0.02,0.15l-0.15,0.05c-3.64,1.28-10.81,9.36-17.13,16.49
		c-1.16,1.31-2.29,2.58-3.37,3.78l-0.38-0.33c4.47-5.36,16.91-23.63,15.42-26.77c-0.09-0.19-0.21-0.23-0.31-0.24
		c-1.9-0.25-8.58,7.97-13.96,14.56c-2.95,3.62-5.75,7.03-7.73,9.1l-0.37-0.34c2.09-2.34,2.72-6.07,1.84-7.61
		c-0.27-0.48-0.67-0.67-1.18-0.56c-1.21,0.24-2.63,2.32-5.22,6.09c-2.52,3.67-6.33,9.23-12.32,16.48L0,388.13l0.41-1.26
		c7.12-21.68,65.97-71.26,81.46-83.45c1.94-4.58,2.98-4.8,4.41-5.11c0.86-0.19,1.83-0.4,3.29-1.67c1.79-1.56,6.6-5.13,11.29-8.55
		c-1.46,0.8-2.76,1.4-3.69,1.6c-2.19,0.48-4.56,0.18-7.06-0.14c-2.06-0.26-4.2-0.53-6.36-0.37c-2.81,0.2-4.09,2.31-5.33,4.35
		c-0.83,1.36-1.61,2.64-2.8,3.34c-0.67,0.39-1.33,0.83-2.02,1.3c-2.29,1.53-4.88,3.27-8.38,3.54c-4,0.31-7.27-2.5-8.67-3.7
		c-0.2-0.17-0.36-0.31-0.49-0.41c-0.92-0.71-4.81-2.34-10.06-3.04c-3.25-0.44-3.3-0.14-3.54,1.26c-0.12,0.72-0.29,1.7-0.89,2.95
		l-0.39,0.81l-0.08-0.89c-0.07-0.72-0.32-1.25-0.77-1.62c-1.05-0.86-2.98-0.67-4.38-0.53c-0.55,0.06-1.03,0.11-1.37,0.08
		c-0.6-0.05-0.84-0.62-1.08-1.17c-0.23-0.53-0.44-1.03-0.92-1.13c-0.72-0.16-1.98,0.55-3.77,2.12c-1.32,1.16-1.9,2.36-1.71,3.57
		c0.44,2.96,5.21,5.15,5.26,5.17l1.26,0.57l-1.38-0.09c-0.05,0-5.37-0.43-6.07-6.92c-0.5-4.66,4.32-6.37,8.58-7.88
		c1.76-0.63,3.43-1.22,4.58-1.96c3.87-2.53,6.5-1.2,8.23-0.32l0.26,0.13c0.62,0.31,1.53,0.29,2.48-0.07
		c1.56-0.58,4.62-2.58,7.48-9.42c3.89-9.31,20.8-17.7,29.77-20.48c0.58-0.23,1.04-0.36,1.34-0.39l0.09,0.49
		c-0.37,0.1-0.76,0.21-1.16,0.34c-4.14,1.62-16.12,8.98-17.02,18.61c-0.25,2.7,0.29,4.46,1.61,5.24c2.94,1.73,9.19-1.54,12.41-3.75
		c3.33-2.28,14.97-11.47,16.8-13.08c0.39-0.35,0.88-0.66,1.44-1.02c2.22-1.42,5.55-3.55,7.91-11.08c0.05-0.2,0.12-0.41,0.19-0.62
		l0.48,0.15c-0.06,0.2-0.12,0.4-0.18,0.59c-0.47,1.8-0.16,3.46,0.91,4.83c1.41,1.81,4.06,2.93,6.45,2.72
		c2.51-0.22,3.48-2.24,5.09-5.59c0.79-1.64,1.68-3.49,2.96-5.62l0.15-0.25l0.22,0.18c7.9,6.45,12.73,1.81,15.94-1.27
		c0.53-0.51,1.03-0.99,1.49-1.36c2.02-1.66,2.06-1.88,2.18-2.49c0.07-0.37,0.17-0.87,0.62-1.78l0.39-0.77l0.09,0.86
		c0.03,0.29,0.28,0.56,0.68,0.76c0.78,0.38,2.18,0.42,3.4-0.37c0.59-0.38,1.05-0.78,1.54-1.2c1.08-0.93,2.2-1.88,4.7-2.61l0.26-0.08
		l0.05,0.27c0.3,1.51,3.12,1.69,3.15,1.69c1.72,0.52,2.31-0.18,3.88-2.07c0.36-0.43,0.76-0.92,1.24-1.45
		c1.62-1.84,2.75-1.55,3.84-1.26c0.68,0.18,1.38,0.36,2.27,0.05c0.02-1.23,1.32-3.34,2.8-4.05c0.96-0.46,1.86-0.3,2.61,0.45
		c1.56,1.56-0.4,4.55-2.89,8.33c-1.32,2.01-2.82,4.29-3.84,6.52l-0.06,0.12l-0.13,0.02c-2.94,0.44-15.45,8.67-17.37,11.43
		c-0.21,0.3-0.19,0.4-0.19,0.4c0.43,2.04-1.64,6.49-3.46,9.86c-1.75,3.25-3.34,5.26-5.75,8.29c-0.92,1.16-1.97,2.48-3.2,4.09
		c-2.91,3.8-5.51,10.93-7.41,16.13c-1,2.75-1.87,5.13-2.53,6.33c-1.65,3-1.84,4.81-2.1,7.31c-0.03,0.32-0.07,0.66-0.11,1
		c-0.09,0.77-0.15,1.53,0.02,1.7c0.11,0.11,0.51,0.07,1.01,0.01c0.6-0.06,1.41-0.15,2.52-0.1c0.04,0,0.08,0,0.11,0
		c3.57,0,12.55-7.46,13.74-9.33c0.3-0.48,0.53-0.9,0.75-1.31c0.67-1.24,1.29-2.41,3.75-4.74c2.05-1.94,7.42-8.32,11.74-13.45
		c2.62-3.11,4.89-5.8,6.09-7.14c1.19-1.32,3.18-3.19,5.49-5.35c3.87-3.63,8.69-8.16,10.97-11.36c3.66-5.14,21.34-20.88,24.15-22.98
		c1.92-1.44,6.11-5.51,9.8-9.1c1.96-1.9,3.81-3.7,5-4.79c1.39-1.27,2.81-2.83,4.31-4.48c2.11-2.32,4.29-4.72,6.46-6.35
		c1.12-0.84,1.69-1.71,1.74-2.67c0.1-1.73-1.49-3.6-3.9-5.87c-2.72-2.56-15.3,4.85-19.92,7.92l-0.31-0.39
		c0.02-0.02,2.08-1.97,4.86-4.7c5.04-4.98,13.74-13.88,15.34-17.53l0.03-0.06l0.06-0.04c1.78-1.26,4-2.37,6.58-3.66
		c6.8-3.39,16.11-8.03,24.6-19.63c13.1-16.84,18.55-20.51,18.78-20.66l0.3,0.4c-0.12,0.11-12.49,10.9-12.36,19.75
		c0.04,2.56,1.13,4.74,3.26,6.48c1.1,0.57,2.05,0.71,2.8,0.39c0.95-0.41,1.26-1.45,1.26-1.46l0.08-0.27l0.26,0.11
		c0.39,0.16,9.66,3.92,13.52-4.91l0.07-0.16l0.17,0.01c1.06,0.04,2,0.42,2.92,0.79c1.83,0.74,3.57,1.44,6.07-0.62
		c1.78-1.46,4.3-3.01,6.74-4.51c2.92-1.8,5.69-3.5,6.85-4.84c1.27-1.47,3.31-11.02,5.12-19.44c1.18-5.54,2.3-10.77,3.08-13.09
		c0.43-1.29,0.83-2.63,1.21-3.91c1.37-4.6,2.66-8.94,5.38-11.3l0.82-0.71l-0.42,1c-2.16,5.07-2.84,8.88-1.77,9.93
		c0.45,0.44,1.24,0.42,2.36-0.08c2.38-1.04,6.5-5.83,10.85-10.9c4.08-4.75,8.3-9.65,11.47-11.91c6.47-4.6,10.64-6.53,10.68-6.55
		l0.23,0.45c-0.09,0.05-9.11,5.14-10.23,8.87c-0.88,2.95-2.07,8.25-0.05,10.67c0.84,1.01,2.2,1.41,4.03,1.2
		c5.02-1.23,6.16-3.96,7.89-8.09c0.62-1.48,1.32-3.17,2.31-5c1.54-2.87,2.1-5.61,2.59-8.02c0.7-3.45,1.3-6.43,4.34-8.96
		c4.43-3.69,4.71-6.78,5.07-10.69c0.05-0.55,0.1-1.1,0.17-1.68c0.48-4.29,5.57-23.02,15.54-31.24c9.68-7.98,18.31-13.52,18.39-13.58
		l0.29,0.41c-4.58,3.55-11.3,9.44-11.06,11.1c0.2,1.39-0.37,2.04-0.87,2.62c-0.43,0.49-0.8,0.92-0.76,1.78
		c0.07,1.79-1.59,3.27-2.81,4.35c-0.27,0.24-0.51,0.45-0.7,0.64c-0.6,0.6-1.36,2.14-1.17,3.71c0.14,1.24,0.84,2.26,2.07,3.02
		c3.46,2.14,5.48,1.86,5.49,1.85l0.45-0.07l-0.18,0.42c-0.01,0.03-1.49,3.39-3.03,5.7c-1.56,2.34-6.71,8.88-9.18,10.38
		c-2.15,1.31-4.6,3.78-4.43,6.46c0.08,1.15,0.55,1.99,1.31,2.31c0.67,0.28,1.47,0.09,2.14-0.5c1.05-0.94,2.47-3.68,3.51-5.68
		c0.44-0.85,0.82-1.58,1.08-1.99c0.18-0.29,0.41-0.77,0.67-1.32c0.96-2.03,2.58-5.42,5.27-6.67c3.34-1.54,6.46-2.16,6.49-2.16
		l0.85-0.17l-0.63,0.59c-0.03,0.02-2.63,2.47-3.37,4.29c-0.38,0.93-0.9,1.32-1.41,1.7c-0.57,0.43-1.11,0.83-1.5,2.06
		c-0.46,1.42-0.34,2.83,0.29,3.51c0.38,0.41,0.9,0.53,1.56,0.37c1.78-0.43,5.13-2.4,5.04-6.79l0-0.26l0.26,0.01
		c0.62,0.04,1.13-0.17,1.55-0.59c0.83-0.8,1.1-2.21,1.1-2.77v-0.18l0.18-0.05c2.21-0.68,3.36-1.82,3.51-3.48l0.13-1.32l0.36,1.27
		c0.11,0.38,0.25,0.78,0.4,1.21c0.8,2.26,1.79,5.08-0.42,9.28c-1.17,2.21-2.05,3.21-2.7,3.94c-0.78,0.88-1.17,1.32-1.3,3.08
		c-0.27,3.49-1.39,5.25-5,7.82c-0.78,0.55-1.99,1.32-3.53,2.3c-5.45,3.46-14.57,9.25-16.97,13.78c-1.37,2.59-1.92,3.86-2.35,4.89
		c-0.55,1.28-0.88,2.05-2.35,4.29c-0.51,0.77-1.01,1.46-1.5,2.12c-2.02,2.74-3.24,4.4-0.71,6.83c3.05,2.94,12.17-1.4,16.16-4.26
		c0.58-0.42,1.27-0.93,2.05-1.5c4.18-3.09,10.5-7.76,14.4-8.84l1.37-0.38l-1.16,0.82c-7.24,5.12-11.78,9.69-13.88,13.98
		c-0.67,1.38-1.68,2.67-2.75,4.03c-3.41,4.34-7.64,9.74-5.92,23.18c0.69,5.35,2.77,9.4,6.2,12.04c5.26,4.04,12.05,3.39,12.69,3.32
		c0.35-0.2,2.4-1.23,6.97-0.81c4.27,0.4,18.71,12.27,22.46,17.26c0.89,1.19,0.93,1.67,0.88,1.92l-0.02,0.11l-0.09,0.06
		c-0.55,0.34-1.16,0.71-1.82,1.11c-6.92,4.17-18.51,11.15-19.23,21.36l-0.03,0.44l-0.36-0.26c-2.13-1.51-3.54-2.26-5.15-0.06
		l-0.51,0.71l0.06-0.87c0.32-4.47-1.22-10.56-4.36-13.01c-1.47-1.15-3.17-1.43-5.04-0.81c-4.2,1.38-5.3,2.72-6.36,4.02
		c-0.69,0.84-1.34,1.64-2.76,2.38c-2.36,1.22-1.91,5.57-1.54,9.07c0.15,1.47,0.29,2.73,0.18,3.56c-0.12,0.99-0.47,2.38-0.83,3.85
		c-0.66,2.65-1.4,5.65-1.12,7.3l0.04,0.26l-0.26,0.03c-0.56,0.08-1.18-0.11-1.84-0.31c-1.57-0.47-3.06-0.9-4.03,1.63
		c-1.69,4.43-4.99,15.71-3.09,17.36c0.33,0.29,0.87,0.24,1.59-0.16l1.12-0.62l-0.8,0.99c-1.92,2.37-9.42,12.37-9.49,12.47
		l-0.85,1.13l0.41-1.35c3.11-10.32,10.93-37.64,9.74-40.1c-0.97-2.01-2.18-3.93-4.51-4.36c-2.94-0.55-6.95,1.52-11.92,6.15
		c-8.76,8.17-8.61,8.81-8.18,10.69c0.16,0.7,0.36,1.58,0.24,2.99c-0.24,2.87-1.85,4.96-3.27,6.81c-0.52,0.68-1.01,1.31-1.38,1.93
		c-0.21,0.79-0.42,1.66-0.63,2.62l-0.25,1.14l-0.24-1.14c-0.21-0.97,0.1-1.89,0.65-2.82c0.25-0.97,0.5-1.83,0.72-2.58
		c1.22-4.22,1.73-5.97-1.1-9.72c-1.94-3.73,0.78-6.09,2.96-7.99c1.6-1.39,2.98-2.59,2.28-3.95c-0.57-1.11-1.58-1.4-2.64-1.71
		c-2.13-0.62-4.33-1.27-2.53-8.53c0.94-3.79,0.14-6.22-2.23-6.83c-2.71-0.69-6.42,1.16-6.9,2.95c-0.11,0.41-0.23,0.84-0.35,1.28
		c-0.88,3.13-1.88,6.69-0.15,8.8l0.1,0.12l-0.07,0.14c-0.82,1.68-1.93,3.06-2.91,4.28c-1.38,1.71-2.47,3.06-2.22,4.49l0.06,0.32
		l-0.5-0.05c-1.06-0.11-1.97-0.21-2.66,1.58l-0.45,1.16l-0.03-1.25c-0.06-2.23-0.52-3.71-1.43-4.54c-0.75-0.68-1.8-0.94-3.33-0.83
		l-0.3,0.02l0.04-0.3c0.11-0.92,0.42-2.28,0.79-3.86c1.13-4.88,2.84-12.27-0.29-13.5c-2.76-1.09-10.18,1.12-14.96,3.83
		c-2.73,1.54-4.41,3.12-4.61,4.34c-0.49,2.94,0.73,7.79,3.03,9.64c0.97,0.78,2.03,0.95,3.15,0.5c1.71-0.68,3.11-1.52,4.14-2.13
		c1.26-0.75,1.96-1.17,2.39-0.87c0.35,0.24,0.3,0.81,0.22,1.33c-0.05,0.28-0.09,0.56-0.13,0.83c-0.37,2.5-0.74,5.07-4.47,4.98
		c-1.92-0.06-3.1-1.18-4.25-2.26c-1.23-1.16-2.39-2.27-4.4-1.86c-4.77,0.95-7.39,4.23-7.01,8.77c0.27,3.23,0.42,4.8,0.96,5.24
		c0.26,0.22,0.67,0.22,1.39,0.14l0.68-0.08l-0.47,0.5c-0.32,0.33-0.66,0.72-1.01,1.12c-1.42,1.62-3.03,3.46-4.38,3.21
		c-0.61-0.11-1.1-0.63-1.44-1.56c-1.21-3.23-0.59-5.93,0.19-9.35c0.12-0.53,0.25-1.09,0.37-1.66c0.63-2.93,0.68-10.7-2.11-12.43
		c-1.1-0.68-2.55-0.31-4.32,1.1c-0.5,0.81-0.62,1.56-0.35,2.22c0.73,1.77,3.96,2.51,3.99,2.52l1.32,0.29l-1.34,0.2
		c-0.04,0.01-3.8,0.58-5.09,2.52l-0.12,0.17l-0.19-0.08c-1.2-0.52-4.38-1.92-6.11-0.94c-0.67,0.38-1.07,1.09-1.2,2.11l-0.04,0.31
		c-0.54,4.2-0.77,5.94-4.73,6.88c-0.96,0.23-1.51,0.49-1.64,0.79c-0.11,0.25,0.1,0.61,0.33,0.98c0.31,0.53,0.7,1.19,0.33,1.88
		c-0.22,0.41-0.05,0.93,0.47,1.4c0.92,0.83,2.67,1.19,4.09,0.22c1.14-0.78,2.63-0.55,3.59,0.01c0.81,0.48,1.26,1.19,1.2,1.9
		c-0.06,0.67-0.58,1.63-2.74,2.42c-5.74,2.11-7.61-1.23-7.63-1.26l0.44-0.24c0.07,0.12,1.7,2.98,7.02,1.03
		c1.49-0.55,2.34-1.25,2.41-1.99c0.05-0.51-0.31-1.05-0.95-1.42c-0.8-0.47-2.1-0.68-3.06-0.03c-1.65,1.13-3.62,0.72-4.71-0.27
		c-0.69-0.62-0.9-1.39-0.57-2.01c0.24-0.44-0.03-0.9-0.32-1.39c-0.28-0.47-0.56-0.95-0.35-1.43c0.2-0.47,0.81-0.81,1.98-1.08
		c3.63-0.85,3.81-2.27,4.35-6.46l0.04-0.31c0.15-1.19,0.64-2.03,1.45-2.48c1.86-1.06,4.91,0.19,6.37,0.83
		c1.04-1.37,3.09-2.06,4.32-2.36c-1.1-0.38-2.81-1.17-3.37-2.53c-0.35-0.83-0.21-1.75,0.41-2.72l0.05-0.06
		c1.97-1.58,3.63-1.96,4.93-1.16c3.14,1.95,2.94,10.17,2.34,12.96c-0.12,0.58-0.25,1.13-0.37,1.67c-0.76,3.34-1.37,5.97-0.21,9.06
		c0.28,0.74,0.64,1.16,1.06,1.24c1.08,0.2,2.65-1.6,3.91-3.05c0.2-0.23,0.4-0.45,0.58-0.66c-0.44,0.02-0.82-0.05-1.12-0.3
		c-0.7-0.58-0.85-2.04-1.14-5.59c-0.4-4.82,2.37-8.3,7.41-9.31c2.26-0.45,3.57,0.79,4.84,1.99c1.08,1.02,2.19,2.07,3.92,2.12
		c0.07,0,0.14,0,0.21,0c3.08,0,3.39-2.12,3.76-4.56c0.04-0.28,0.08-0.56,0.13-0.84c0.12-0.74,0-0.83,0-0.84
		c-0.18-0.12-1.11,0.44-1.86,0.89c-1.04,0.62-2.47,1.47-4.21,2.17c-1.29,0.51-2.55,0.32-3.65-0.57c-2.43-1.96-3.72-7.04-3.21-10.12
		c0.29-1.77,2.8-3.53,4.86-4.69c4.89-2.77,12.41-5.03,15.39-3.86c3.53,1.39,1.83,8.73,0.59,14.08c-0.32,1.4-0.61,2.62-0.74,3.51
		c1.49-0.06,2.61,0.26,3.4,0.97c0.87,0.79,1.38,2.09,1.55,3.94c0.76-1.17,1.72-1.13,2.61-1.04c-0.09-1.53,1.05-2.95,2.36-4.57
		c0.94-1.16,2-2.48,2.78-4.05c-1.76-2.32-0.74-5.93,0.16-9.13c0.12-0.43,0.24-0.86,0.35-1.27c0.58-2.2,4.72-4.02,7.5-3.3
		c1.56,0.4,3.96,1.9,2.59,7.43c-1.68,6.8,0.11,7.32,2.19,7.93c1.12,0.33,2.27,0.67,2.94,1.96c0.88,1.7-0.71,3.09-2.4,4.55
		c-2.16,1.88-4.6,4-2.87,7.35c2.96,3.91,2.39,5.86,1.16,10.12c-0.11,0.38-0.22,0.77-0.34,1.17c0.18-0.25,0.38-0.5,0.58-0.76
		c1.38-1.8,2.93-3.83,3.17-6.55c0.11-1.33-0.08-2.17-0.23-2.84c-0.5-2.16-0.65-2.81,8.32-11.17c5.09-4.75,9.25-6.86,12.35-6.28
		c2.89,0.54,4.23,3.31,4.87,4.64c1.37,2.84-7.29,32.32-9.31,39.12c1.82-2.42,6.1-8.1,8.08-10.62c-0.51,0.11-0.93,0.03-1.26-0.26
		c-2.71-2.36,2.89-17.77,2.95-17.92c1.13-2.97,3.07-2.4,4.64-1.94c0.5,0.15,0.97,0.29,1.38,0.3c-0.19-1.78,0.53-4.66,1.16-7.22
		c0.36-1.45,0.7-2.83,0.82-3.79c0.1-0.77-0.03-2.01-0.18-3.45c-0.38-3.65-0.86-8.19,1.81-9.56c1.33-0.69,1.95-1.44,2.6-2.25
		c1.05-1.29,2.25-2.75,6.59-4.18c2.04-0.67,3.9-0.37,5.51,0.89c3.09,2.42,4.7,8.17,4.58,12.68c1.71-1.81,3.38-0.84,4.99,0.29
		c1.03-10.23,12.53-17.15,19.44-21.31c0.61-0.37,1.18-0.71,1.7-1.03c-0.02-0.18-0.16-0.59-0.79-1.43
		c-3.61-4.8-18.03-16.68-22.1-17.06c-4.75-0.44-6.69,0.75-6.71,0.76l-0.1,0.04c-0.07,0.01-7.44,0.94-13.11-3.41
		c-3.54-2.72-5.69-6.88-6.4-12.37c-1.75-13.64,2.56-19.14,6.02-23.55c1.05-1.34,2.05-2.61,2.7-3.94c1.99-4.06,6.11-8.36,12.57-13.11
		c-3.79,1.67-8.96,5.49-12.55,8.14c-0.78,0.57-1.47,1.09-2.05,1.51c-3.24,2.33-13.23,7.65-16.8,4.21c-2.84-2.74-1.38-4.73,0.66-7.49
		c0.48-0.66,0.98-1.34,1.48-2.1c1.45-2.2,1.77-2.96,2.31-4.21c0.42-0.98,0.99-2.32,2.37-4.92c2.46-4.65,11.65-10.48,17.14-13.97
		c1.47-0.93,2.74-1.74,3.5-2.29c3.5-2.5,4.53-4.1,4.79-7.45c0.15-1.94,0.63-2.48,1.43-3.38c0.63-0.71,1.5-1.68,2.63-3.84
		c2.11-4,1.16-6.71,0.39-8.88c-0.04-0.12-0.08-0.23-0.12-0.34c-0.46,1.33-1.63,2.31-3.5,2.92c-0.05,0.64-0.33,2.05-1.25,2.94
		c-0.47,0.45-1.02,0.69-1.66,0.72c-0.04,4.53-3.54,6.58-5.43,7.03c-1.06,0.25-1.7-0.14-2.05-0.52c-0.76-0.82-0.92-2.39-0.4-4.01
		c0.44-1.38,1.1-1.87,1.68-2.31c0.47-0.35,0.92-0.69,1.25-1.49c0.55-1.35,2.01-2.97,2.86-3.84c-1.14,0.29-3.29,0.9-5.53,1.93
		c-2.53,1.17-4.09,4.46-5.03,6.43c-0.28,0.59-0.5,1.06-0.7,1.37c-0.25,0.4-0.62,1.12-1.06,1.96c-1.06,2.04-2.5,4.82-3.62,5.82
		c-0.81,0.72-1.81,0.94-2.66,0.59c-0.94-0.39-1.53-1.38-1.62-2.74c-0.19-2.9,2.4-5.55,4.67-6.92c2.3-1.4,7.4-7.79,9.02-10.22
		c1.22-1.82,2.39-4.32,2.82-5.26c-0.8-0.01-2.67-0.25-5.4-1.95c-1.35-0.83-2.15-2.01-2.31-3.39c-0.21-1.83,0.7-3.5,1.32-4.12
		c0.2-0.2,0.45-0.42,0.72-0.66c1.14-1.01,2.71-2.4,2.64-3.96c-0.04-1.06,0.45-1.63,0.88-2.13c0.49-0.57,0.92-1.06,0.75-2.22
		c-0.22-1.53,3.68-5.24,6.97-8.06c-3.43,2.4-8.44,6.05-13.77,10.45c-9.85,8.12-14.89,26.65-15.36,30.9
		c-0.06,0.57-0.11,1.13-0.16,1.67c-0.35,3.86-0.65,7.2-5.25,11.03c-2.9,2.42-3.49,5.32-4.17,8.68c-0.5,2.45-1.06,5.22-2.64,8.16
		c-0.97,1.81-1.67,3.48-2.29,4.96c-1.72,4.12-2.96,7.1-8.26,8.39c-2.04,0.23-3.54-0.23-4.5-1.37c-2.17-2.59-0.96-8.09-0.05-11.13
		c0.5-1.68,2.43-3.56,4.49-5.18c-1.3,0.83-2.78,1.81-4.41,2.97c-3.12,2.22-7.32,7.1-11.38,11.83c-4.4,5.11-8.55,9.94-11.03,11.03
		c-1.33,0.58-2.3,0.57-2.91-0.03c-1.55-1.53,0.03-6.38,1.18-9.31c-2.04,2.4-3.17,6.19-4.36,10.18c-0.38,1.29-0.78,2.63-1.22,3.93
		c-0.76,2.29-1.88,7.51-3.06,13.04c-1.9,8.89-3.87,18.09-5.22,19.66c-1.21,1.4-4.01,3.12-6.97,4.94c-2.42,1.49-4.93,3.03-6.68,4.47
		c-2.73,2.25-4.69,1.46-6.57,0.7c-0.83-0.33-1.68-0.68-2.58-0.75c-3.74,8.27-12.3,5.66-13.86,5.1c-0.17,0.4-0.59,1.16-1.45,1.53
		c-0.9,0.39-2,0.24-3.28-0.43c-2.29-1.86-3.45-4.17-3.49-6.89c-0.06-4.49,2.88-9.35,5.93-13.18c-2.9,3.12-6.78,7.61-11.74,13.99
		c-8.55,11.7-17.93,16.37-24.78,19.78c-2.53,1.26-4.72,2.35-6.46,3.58c-1.62,3.58-9.26,11.55-15.42,17.62
		c-1.16,1.15-2.2,2.16-3.02,2.94c4.69-2.91,15.55-9.15,18.38-6.49c2.51,2.36,4.17,4.33,4.06,6.26c-0.06,1.11-0.7,2.1-1.94,3.04
		c-2.13,1.6-4.29,3.98-6.39,6.29c-1.51,1.66-2.94,3.23-4.34,4.51c-1.19,1.08-3.03,2.88-4.99,4.78c-3.7,3.6-7.9,7.68-9.85,9.14
		c-2.8,2.1-20.4,17.76-24.05,22.87c-2.31,3.24-6.95,7.59-11.04,11.43c-2.3,2.16-4.28,4.02-5.46,5.32c-1.2,1.33-3.46,4.01-6.08,7.12
		c-4.55,5.4-9.71,11.53-11.78,13.49c-2.4,2.27-3.01,3.41-3.65,4.61c-0.23,0.42-0.46,0.85-0.77,1.35c-1.27,1.99-10.59,9.75-14.3,9.56
		c-1.07-0.05-1.86,0.04-2.44,0.1c-0.71,0.08-1.13,0.12-1.42-0.16c-0.3-0.31-0.3-0.87-0.16-2.11c0.04-0.35,0.07-0.68,0.11-1
		c0.26-2.56,0.46-4.41,2.15-7.5c0.64-1.16,1.5-3.52,2.5-6.26c1.91-5.23,4.52-12.4,7.48-16.26c1.23-1.61,2.28-2.93,3.21-4.1
		c2.39-3.01,3.97-5,5.7-8.22c2.51-4.66,3.72-8.04,3.41-9.52c-0.04-0.21,0.04-0.46,0.27-0.79c1.93-2.77,14.34-10.95,17.57-11.62
		c1.04-2.23,2.52-4.48,3.83-6.47c2.27-3.45,4.22-6.43,2.95-7.71c-0.6-0.6-1.29-0.72-2.04-0.35c-1.43,0.69-2.61,2.84-2.51,3.74
		l0.02,0.19l-0.18,0.07c-1.13,0.45-1.99,0.23-2.75,0.03c-1.07-0.28-1.92-0.5-3.34,1.11c-0.47,0.53-0.87,1.02-1.23,1.44
		c-1.58,1.9-2.38,2.84-4.35,2.24c-0.07-0.03-2.88-0.17-3.47-1.81c-2.23,0.68-3.22,1.54-4.28,2.44c-0.48,0.41-0.98,0.84-1.6,1.24
		c-1.39,0.9-2.96,0.85-3.89,0.4c-0.31-0.15-0.56-0.34-0.72-0.56c-0.23,0.53-0.29,0.86-0.34,1.14c-0.15,0.77-0.29,1.09-2.35,2.78
		c-0.44,0.36-0.93,0.84-1.46,1.34c-3.3,3.17-8.27,7.94-16.37,1.48c-1.19,2-2.04,3.77-2.79,5.33c-1.63,3.39-2.7,5.63-5.49,5.87
		c-2.55,0.22-5.38-0.97-6.89-2.91c-0.56-0.72-1.12-1.76-1.21-3.12c-2.35,6.1-5.35,8.03-7.43,9.35c-0.55,0.35-1.02,0.65-1.38,0.97
		c-1.83,1.62-13.5,10.83-16.85,13.12c-0.92,0.63-9.06,6.06-12.95,3.77c-1.51-0.89-2.13-2.81-1.86-5.72
		c0.73-7.82,8.32-14.09,13.68-17.22c-9.2,3.56-22.38,10.89-25.73,18.89c-2.93,7.01-6.12,9.08-7.77,9.69
		c-1.08,0.4-2.13,0.42-2.88,0.05l-0.26-0.13c-1.73-0.88-4.1-2.08-7.73,0.29c-1.2,0.78-2.89,1.38-4.68,2.02
		c-4.08,1.45-8.71,3.09-8.25,7.36c0,0.02,0,0.03,0,0.05c0.23-0.92,0.84-1.81,1.81-2.67c1.97-1.73,3.3-2.44,4.21-2.23
		c0.72,0.16,1.03,0.86,1.27,1.42c0.23,0.53,0.39,0.85,0.66,0.87c0.29,0.02,0.75-0.02,1.28-0.08c1.49-0.15,3.54-0.36,4.75,0.64
		c0.36,0.3,0.62,0.69,0.78,1.16c0.33-0.86,0.45-1.56,0.54-2.11c0.29-1.68,0.53-2.15,4.1-1.67c5.16,0.69,9.2,2.28,10.31,3.14
		c0.13,0.1,0.3,0.25,0.51,0.43c1.35,1.16,4.5,3.87,8.3,3.58c3.37-0.26,5.8-1.88,8.14-3.46c0.7-0.47,1.37-0.92,2.05-1.32
		c1.08-0.64,1.83-1.87,2.63-3.17c1.25-2.05,2.66-4.37,5.72-4.59c2.21-0.16,4.37,0.11,6.46,0.38c2.46,0.31,4.78,0.6,6.89,0.14
		c2.25-0.49,6.91-3.48,10.41-5.89c2.57-1.85,4.38-3.13,4.43-3.17l0.29,0.4c-0.19,0.14-2.16,1.61-4.67,3.34
		c-5.72,4.11-14.99,10.83-17.63,13.13c-1.56,1.36-2.65,1.59-3.52,1.78c-1.34,0.29-2.23,0.48-4.08,4.88l-0.08,0.1
		C67.17,315.62,10.4,363.4,1.4,385.65c5.44-6.68,8.97-11.83,11.35-15.3c2.75-4,4.12-6.02,5.53-6.3c0.72-0.14,1.33,0.14,1.71,0.81
		c0.7,1.22,0.58,3.57-0.36,5.74c1.69-1.94,3.7-4.4,5.79-6.96c7.17-8.78,12.43-14.97,14.41-14.74c0.31,0.04,0.55,0.22,0.7,0.52
		c1.35,2.85-6.49,15.01-11.75,22.36c6.09-6.86,12.8-14.32,16.45-15.74c1.2-9.59,8.4-16.51,14.25-20.62c1.24-0.87,2.4-1.73,3.53-2.56
		c5.14-3.78,9.2-6.77,12.92-5.46c0.44,0.15,0.86,0.3,1.27,0.44c3.69,1.26,6.35,2.17,6.1,5.91c-0.14,2.1-1.77,3.08-3.21,3.94
		c-1.43,0.85-2.55,1.53-2.21,3.03c0.43,1.86,2.04,3.46,3.59,3.57c0.68,0.04,1.59-0.18,2.12-1.54c0.62-1.61,0.69-3.04,0.75-4.3
		c0.07-1.34,0.12-2.5,0.82-3.48c1.09-1.52,4.69-5.28,7.82-6.52c-6.74-1.94-6.06-5.99-5.56-8.98l0.02-0.1
		c0.33-1.96,3.95-4.14,7.13-5.03c3.35-0.94,6.08-0.56,7.47,1.04c3.72,4.29,3.63,9.94-0.24,15.5c-0.61,0.88-1.35,1.99-2.2,3.26
		c-4.97,7.45-13.29,19.91-20.8,24.11c-9.63,5.38-32.17,19.52-40.36,28.87c-7.61,8.69-18.6,25.86-15.66,34.95
		c1.12,3.46,3.27,5.6,6.06,6.02c3.99,0.59,8.68-2.35,12.55-7.89c3.86-5.51,4.77-8.18,5.31-9.77c0.25-0.73,0.44-1.28,0.78-1.8
		c-3.82,2.12-6.94,2.56-8.74,1.16c-1.32-1.03-1.7-2.94-0.98-4.98c1.58-4.47,23.28-33.9,27.79-33.9c0.9,0,1.67-0.06,2.34-0.1
		c2.51-0.18,3.65-0.26,4.09,3.54c0.29,2.52-1.6,7.91-3.78,12.69c1.03-1.76,2.01-3.48,2.97-5.18c5.3-9.39,9.88-17.5,21.2-24.82
		c6.07-3.92,11.4-8.15,16.1-11.89c8.12-6.45,15.14-12.03,22.78-13.55c12.28-2.46,33.97-9.08,37.63-12.86
		c0.8-0.83,1.66-1.62,2.49-2.4c3-2.8,5.85-5.45,6.6-9.54c0.03-0.25,0.07-0.49,0.11-0.75l0.5,0.07c-0.03,0.25-0.07,0.5-0.11,0.75
		c-0.65,4.59-0.29,8,1.08,10.41c1.25,2.19,3.2,3.27,4.91,4.23c1.84,1.02,3.58,1.99,4.07,4.1c0.4,1.72,1.11,3.01,1.8,4.26
		c1.58,2.9,3.08,5.64-0.09,12.72c-1.12,2.5-2.4,5.64-3.75,8.97c-4,9.83-8.98,22.07-13.14,25.45c-5.96,4.84-12.36,11.26-14.68,22.17
		c-2.45,11.54-4.11,34.23-4.11,36.34c0,1.19-0.88,1.97-1.73,2.72c-1.01,0.9-1.89,1.67-1.38,3.03c0.62,1.64,4.2,4.14,6.64,3.69
		c1.42-0.26,2.14-1.47,2.14-3.6c0-2.26-0.45-3.8-0.84-5.16c-0.85-2.93-1.46-5.05,3.29-11.47c4.61-6.22,4.19-7.04,4.13-7.12
		c-0.05-0.06-0.33-0.01-0.55,0.1c-0.04,0.03-1.72,1.18-3.4,0.6c-1.12-0.39-1.94-1.45-2.45-3.15c-1.19-3.95-0.3-8.78,1.2-10.98
		c0.5-0.73,1.05-1.14,1.59-1.18c0.19-0.02,0.38-0.03,0.55-0.05c1.11-0.11,1.92-0.18,2.41,0.3c0.34,0.33,0.46,0.88,0.4,1.73
		c-0.1,1.27,0.53,2.32,1.18,2.5c0.46,0.13,0.75-0.24,0.92-0.57c0.44-0.88,0.34-1.69,0.22-2.71c-0.11-0.88-0.23-1.88-0.07-3.22
		c0.04-0.3,0.07-0.62,0.1-0.93c0.29-2.66,0.62-5.67,2.4-7.17c-0.09-0.16-0.19-0.32-0.28-0.48c-0.9-1.52-1.82-3.09-1.31-4.34
		c0.29-0.72,1.01-1.23,2.19-1.55c1.85-0.51,2.87-0.49,3.86-0.46c1.03,0.02,2.1,0.04,4.2-0.57c1.03-0.3,1.78-0.45,2.33-0.57
		c1.5-0.31,1.5-0.31,2.42-2.73l0.06-0.16c0.72-1.9,2.11-3.1,3.55-3.01c1.12,0.06,2.06,0.84,2.68,2.19c0.28-5.26,0.24-6.94-2.34-8.31
		c-0.78-0.41-1.25-0.96-1.39-1.63c-0.3-1.46,1.02-3.11,1.99-4.31c0.12-0.15,0.24-0.3,0.35-0.44c1.09-1.41,1.19-8.86-0.22-14.55
		l-0.03-0.11l0.07-0.09c2.15-2.91,3.73-4.24,4.89-5.21c1.44-1.21,2.24-1.88,2.79-4.48c1.02-4.75,1.03-5.89-1.02-11.01
		c-0.55-1.37-1.42-3.02-2.35-4.77c-2.61-4.94-5.58-10.54-3.83-14.23c0.7-1.47,1.09-2.55,1.38-3.35c0.69-1.89,0.88-2.4,3.16-2.97
		c0.93-0.23,1.98-0.68,2.99-1.11c1.77-0.75,3.17-1.35,3.81-0.8c0.31,0.27,0.38,0.74,0.2,1.45c-0.4,1.59-0.75,2.02-1.33,2.72
		c-0.56,0.68-1.4,1.71-2.81,4.54c-2.36,4.73-2.4,5.1-2.63,7.53c-0.04,0.46-0.1,1-0.17,1.66l-0.5-0.06c0.08-0.65,0.13-1.19,0.17-1.65
		c0.24-2.51,0.28-2.89,2.69-7.7c1.44-2.88,2.3-3.93,2.87-4.63c0.57-0.7,0.86-1.05,1.23-2.53c0.12-0.48,0.11-0.82-0.04-0.94
		c-0.4-0.34-1.94,0.31-3.29,0.88c-1.03,0.44-2.1,0.89-3.06,1.14c-2.03,0.51-2.15,0.83-2.81,2.66c-0.29,0.8-0.69,1.9-1.4,3.39
		c-1.64,3.46,1.39,9.18,3.82,13.78c0.93,1.76,1.81,3.42,2.37,4.82c2.09,5.22,2.07,6.5,1.04,11.3c-0.59,2.76-1.48,3.51-2.96,4.75
		c-1.12,0.94-2.66,2.24-4.74,5.03c1.33,5.47,1.38,13.21,0.1,14.86c-0.11,0.14-0.23,0.29-0.35,0.44c-0.85,1.06-2.14,2.67-1.89,3.9
		c0.11,0.52,0.48,0.94,1.13,1.29c2.99,1.58,2.88,3.6,2.56,9.6l-0.11,1.98l-0.41-1.51c-0.5-1.85-1.46-2.95-2.65-3.01
		c-1.21-0.06-2.41,1-3.06,2.69l-0.06,0.16c-0.98,2.58-1.02,2.68-2.79,3.04c-0.54,0.11-1.28,0.26-2.29,0.56
		c-2.17,0.63-3.28,0.61-4.35,0.59c-1-0.02-1.94-0.04-3.72,0.44c-1.02,0.28-1.63,0.69-1.86,1.25c-0.41,1.02,0.45,2.48,1.28,3.89
		c0.13,0.22,0.26,0.45,0.39,0.67l0.11,0.19l-0.18,0.13c-1.76,1.32-2.08,4.31-2.37,6.96c-0.03,0.32-0.07,0.63-0.1,0.94
		c-0.15,1.27-0.03,2.24,0.07,3.1c0.13,1.06,0.24,1.98-0.27,2.99c-0.34,0.68-0.9,1-1.5,0.83c-0.84-0.23-1.67-1.45-1.55-3.02
		c0.05-0.68-0.03-1.12-0.25-1.34c-0.33-0.32-1.07-0.25-2.01-0.16c-0.18,0.02-0.37,0.03-0.56,0.05c-0.39,0.03-0.81,0.37-1.22,0.97
		c-1.44,2.11-2.28,6.75-1.14,10.56c0.46,1.54,1.18,2.48,2.14,2.82c1.43,0.5,2.96-0.54,2.98-0.55c0.11-0.06,0.83-0.42,1.19,0
		c0.24,0.28,0.87,1.02-4.1,7.74c-4.6,6.22-4.05,8.13-3.21,11.03c0.4,1.39,0.86,2.97,0.86,5.3c0,3-1.39,3.89-2.55,4.1
		C157.94,445.51,157.71,445.52,157.48,445.52z M28.56,303.3c0.47,0.5,0.98,0.87,1.46,1.14C29.54,304.12,29.03,303.73,28.56,303.3z"
		/>
</g>
<g>
	<path d="M333.73,143.3c-0.11,0-0.21-0.01-0.3-0.03l-0.15-0.04l-0.03-0.15c-0.71-3.21,2.46-10.36,4.75-11.77l0.59-0.37l-0.23,0.66
		c-0.01,0.02-0.79,2.34,0.01,3.84c0.31,0.58,0.83,0.97,1.53,1.15l0.25,0.06l-0.07,0.25C339.11,140.34,335.47,143.3,333.73,143.3z
		 M333.71,142.8c0.02,0,0.03,0,0.05,0c1.37,0,4.75-2.64,5.78-5.79c-0.72-0.25-1.26-0.69-1.6-1.33c-0.61-1.14-0.43-2.61-0.24-3.49
		C335.67,134.18,333.23,140,333.71,142.8z"/>
</g>
<g>
	<path d="M344.33,130.51c-0.04,0-0.09,0-0.14-0.01c-1.04-0.08-2.29-1.15-2.58-1.97c-0.16-0.44,0.01-0.69,0.12-0.8l0,0
		c2.02-1.93,3.11-1.82,3.67-1.4c0.84,0.64,0.76,2.31,0.16,3.41C345.29,130.25,344.87,130.51,344.33,130.51z M342.08,128.1
		c-0.06,0.06-0.02,0.21,0.01,0.27c0.21,0.6,1.26,1.57,2.15,1.64c0.39,0.03,0.69-0.13,0.89-0.49c0.54-1,0.53-2.35-0.03-2.78
		C344.54,126.31,343.43,126.81,342.08,128.1L342.08,128.1z"/>
</g>
<g>
	<path d="M400.84,184.51c-0.19,0-0.38-0.01-0.55-0.04c-0.64-0.11-1.22-0.23-1.75-0.33c-2.17-0.44-3.37-0.68-4.57,0.32l-0.32-0.38
		c1.38-1.15,2.74-0.88,4.99-0.43c0.52,0.11,1.1,0.22,1.74,0.33c1.88,0.33,5.37-1.43,6.91-4.1c0.8-1.39,1.35-3.55-0.62-5.91
		c-3.77-4.52-8.55-2.12-14.08,0.65c-0.98,0.49-1.99,1-3.01,1.48l-0.08,0.02c-7.69,0.67-12.39,6.9-12.44,6.97l-0.4-0.3
		c0.05-0.06,4.86-6.45,12.75-7.16c1.01-0.47,2-0.97,2.96-1.45c5.72-2.87,10.67-5.35,14.69-0.52c1.68,2.01,1.92,4.32,0.67,6.48
		C406.19,182.77,402.96,184.51,400.84,184.51z"/>
</g>
<g>
	<path d="M376.07,200.7c-0.82,0-1.55-0.23-2.15-0.71c-1.78-1.39-2.16-4.64-0.94-8.07c1.17-3.31,1.81-3.58,2.72-3.62
		c0.46-0.02,0.9-0.05,1.65-1.23c1.5-3.23,5.88-5.06,6.07-5.13l0.19,0.46c-0.04,0.02-4.39,1.83-5.82,4.91
		c-0.83,1.33-1.4,1.46-2.06,1.49c-0.58,0.03-1.14,0.06-2.28,3.29c-1.14,3.23-0.83,6.25,0.78,7.51c1.31,1.02,3.34,0.73,5.71-0.82
		c3.64-2.38,4.11-3.64,4.6-4.97c0.36-0.96,0.73-1.95,2.23-3.36l0.34,0.37c-1.41,1.32-1.75,2.22-2.1,3.17
		c-0.5,1.35-1.02,2.74-4.8,5.21C378.68,200.2,377.27,200.7,376.07,200.7z"/>
</g>
<g>
	<path d="M265.26,206.45c-0.6,0-1.11-0.06-1.5-0.18c-0.33-0.04-3.27-0.42-3.9-2.37c-0.52-1.63,0.75-3.8,3.79-6.47
		c8.39-7.38,11.42-8.9,16-11.19l0.36-0.18c5.46-2.73,11.82-6.73,12.59-8.44c0.14-0.31,0.34-0.5,0.61-0.57
		c0.69-0.18,1.63,0.5,2.71,1.29c1.18,0.86,2.51,1.84,3.56,1.68c2.51-0.36,8.75-3.33,10.7-6.46c0.25-0.41,0.48-0.78,0.68-1.11
		c1.44-2.36,1.87-3.07,5.21-5.7c1.51-1.19,2.68-2.77,3.71-4.16c1.53-2.06,2.84-3.84,4.64-3.32c0.96,0.28,1.55,0.71,1.79,1.33
		c0.46,1.17-0.43,2.83-1.64,4.88c-1.62,2.73-3.86,4.07-7.26,6.09c-0.52,0.31-1.06,0.63-1.64,0.98c-0.62,0.38-1.28,0.76-1.96,1.16
		c-4.05,2.38-8.65,5.07-9.03,7.7c-0.52,3.61-3.01,8.62-8.47,11.85c-5.13,3.03-8.74,4.02-11.4,3.05c0.51,0.6,0.81,1.17,0.7,1.8
		c-0.19,1.17-1.74,2.32-5.35,3.97C274.27,204.78,268.46,206.45,265.26,206.45z M293.45,177.52c-0.04,0-0.08,0-0.12,0.01
		c-0.08,0.02-0.19,0.07-0.28,0.29c-0.91,2.02-8.04,6.29-12.82,8.68l-0.36,0.18c-4.55,2.27-7.55,3.77-15.89,11.11
		c-2.83,2.49-4.09,4.55-3.64,5.95c0.55,1.71,3.47,2.03,3.5,2.03l0.05,0.01c2.37,0.74,9.28-1.05,16.07-4.17
		c3.34-1.53,4.9-2.64,5.06-3.6c0.13-0.78-0.71-1.58-1.77-2.59l0,0c-0.01-0.01-0.02-0.01-0.03-0.02l0.31-0.39
		c2.56,2.05,6.39,1.37,12.42-2.19c5.31-3.14,7.73-8,8.23-11.49c0.41-2.87,5.12-5.63,9.27-8.06c0.67-0.4,1.33-0.78,1.95-1.16
		c0.58-0.35,1.12-0.67,1.64-0.98c3.33-1.98,5.53-3.29,7.08-5.91c1.1-1.86,1.99-3.48,1.61-4.44c-0.18-0.46-0.66-0.79-1.46-1.03
		c-1.46-0.43-2.62,1.15-4.1,3.14c-1.05,1.42-2.24,3.02-3.8,4.26c-3.27,2.58-3.66,3.21-5.09,5.57c-0.2,0.33-0.43,0.7-0.68,1.12
		c-2.17,3.49-8.74,6.37-11.05,6.7c-1.23,0.18-2.67-0.86-3.92-1.77C294.79,178.15,293.94,177.52,293.45,177.52z"/>
</g>
<g>
	<path d="M315.05,186.38c-0.13,0-0.25-0.02-0.35-0.07c-0.5-0.23-0.67-0.91-0.51-2.08c0.26-1.86,0.09-3.13-0.03-4.05
		c-0.2-1.54-0.32-2.39,1.78-3.64c0.88-0.53,1.76-0.98,2.61-1.41c2.23-1.15,4.17-2.14,5.56-4.09c1.98-2.76,8.14-4.4,11.5-2.22
		c2.64,1.71,2.82,1.53,3.67,0.62c0.12-0.13,0.25-0.27,0.4-0.41c0.72-0.72,2.05-0.83,2.87-0.52c0.42,0.16,0.66,0.42,0.67,0.73
		c0.02,0.42-0.35,0.83-1.1,1.22c-1.27,0.66-2.24,0.92-3.01,1.14c-0.84,0.23-1.35,0.37-1.71,0.85c-0.08,0.11-0.17,0.24-0.27,0.38
		c-0.78,1.1-2.08,2.95-4.46,2.29c-0.75-0.21-1.31-0.46-1.72-0.64c-0.45-0.2-0.74-0.33-0.91-0.26c-0.17,0.07-0.35,0.38-0.58,1
		c-0.24,0.65-0.09,1.03,0.03,1.34c0.09,0.23,0.18,0.47,0.05,0.72c-0.2,0.38-0.83,0.65-2.83,1.18c-3.93,1.04-6.27,2.5-7.13,4.46
		l-0.04,0.06C318.99,183.58,316.47,186.38,315.05,186.38z M331.68,168.29c-2.83,0-5.9,1.27-7.17,3.04
		c-1.46,2.04-3.54,3.11-5.74,4.24c-0.84,0.43-1.71,0.88-2.58,1.4c-1.81,1.08-1.74,1.64-1.54,3.14c0.13,0.95,0.3,2.25,0.03,4.19
		c-0.12,0.87-0.04,1.44,0.22,1.56c0.7,0.32,2.88-1.66,4.21-3.18c0.94-2.09,3.38-3.63,7.44-4.7c0.71-0.19,2.36-0.62,2.51-0.92
		c0.03-0.05-0.01-0.15-0.08-0.32c-0.14-0.35-0.34-0.87-0.03-1.7c0.3-0.8,0.53-1.15,0.86-1.29c0.37-0.15,0.74,0.01,1.31,0.26
		c0.42,0.19,0.94,0.42,1.65,0.61c2.05,0.56,3.13-0.97,3.92-2.1c0.1-0.14,0.19-0.27,0.28-0.39c0.46-0.61,1.1-0.79,1.97-1.03
		c0.75-0.21,1.69-0.47,2.92-1.1c0.81-0.42,0.84-0.69,0.83-0.74c-0.01-0.1-0.14-0.21-0.35-0.3c-0.66-0.25-1.78-0.15-2.33,0.41
		c-0.14,0.14-0.27,0.28-0.38,0.4c-1.04,1.11-1.43,1.33-4.31-0.54C334.32,168.58,333.03,168.29,331.68,168.29z"/>
</g>
<g>
	<path d="M375.61,166.82l-0.46-0.2c0.92-2.07,4.6-1.82,8.15-1.57l0.6,0.04c0.25-0.93-0.32-2.31-1.38-4.9
		c-0.77-1.89-1.83-4.48-3.04-8.03c-2.43-7.2-0.04-12.79,1.7-16.87c0.4-0.95,0.79-1.84,1.05-2.62c0.63-1.88,0.75-2.96,0.42-3.62
		c-0.34-0.66-1.22-0.94-2.44-1.33c-1.86-0.59-3.47,3.19-4.53,5.69c-0.24,0.57-0.46,1.08-0.66,1.5c-1.19,2.51,0.31,4.92,1.96,6.22
		l0.49,0.39l-0.63,0.06c-2.73,0.25-4.51-0.12-5.45-1.1c-1.12-1.19-0.85-3.03-0.58-4.81c0.16-1.05,0.3-2.04,0.18-2.88
		c-0.47-3.11,1.23-6.83,2.6-9.83c0.18-0.39,0.35-0.76,0.51-1.12c1.34-3.02,1.34-4.49,0-7.17c-0.21-0.41-0.5-0.62-0.91-0.63
		c-1.81-0.04-5.55,3.7-8.09,8.19c-3.01,5.31-4.58,7.15-8.56,8.3c-2.2,0.64-2.96,1.9-4.01,3.64c-0.75,1.26-1.7,2.82-3.44,4.54
		c-2.74,2.7-4.42,5.03-6.19,7.49c-0.89,1.23-1.8,2.5-2.89,3.87c-2.8,3.53-2.62,8.11-2.54,9.13c0.57,0.02,2.2,0.06,4.29-0.01
		c2.54-0.08,5.79-1.93,5.83-1.94l0.25,0.43c-0.14,0.08-3.39,1.93-6.06,2.01c-2.62,0.08-4.53,0-4.55,0l-0.21-0.01l-0.03-0.21
		c-0.03-0.23-0.66-5.56,2.63-9.72c1.08-1.36,1.99-2.63,2.87-3.85c1.79-2.48,3.48-4.83,6.25-7.56c1.7-1.67,2.58-3.14,3.36-4.44
		c1.06-1.77,1.91-3.17,4.3-3.86c3.81-1.1,5.33-2.89,8.26-8.06c2.31-4.08,6.2-8.44,8.49-8.44c0.02,0,0.03,0,0.05,0
		c0.59,0.02,1.06,0.33,1.35,0.9c1.41,2.81,1.41,4.44,0,7.59c-0.16,0.36-0.33,0.74-0.51,1.13c-1.34,2.94-3,6.59-2.56,9.55
		c0.14,0.91-0.02,1.98-0.18,3.03c-0.25,1.66-0.5,3.39,0.45,4.4c0.75,0.8,2.2,1.13,4.43,1c-2-1.83-2.64-4.3-1.63-6.43
		c0.2-0.41,0.41-0.92,0.65-1.48c1.2-2.83,2.84-6.7,5.14-5.97c1.33,0.42,2.3,0.73,2.73,1.58c0.4,0.79,0.29,1.95-0.39,4
		c-0.27,0.81-0.65,1.71-1.06,2.66c-1.71,4.01-4.06,9.5-1.69,16.52c1.2,3.54,2.25,6.12,3.02,8.01c1.18,2.88,1.77,4.32,1.32,5.44
		l-0.07,0.17l-0.97-0.06C380.04,165.32,376.39,165.07,375.61,166.82z"/>
</g>
<g>
	<path d="M343.02,183.63c-0.01,0-0.02,0-0.02,0c-0.67-0.01-1.19-0.29-1.44-0.79c-0.29-0.58-0.31-1.7,1.21-3.74
		c1.86-2.5,3.48-3.67,4.9-4.7c1.29-0.93,2.4-1.74,3.29-3.33c0.45-0.8,0.8-1.48,1.11-2.07c1.02-1.98,1.7-3.28,4.34-6.05
		c3.42-3.59,5.78-5.12,5.88-5.19l0.27,0.42c-0.02,0.02-2.42,1.57-5.79,5.11c-2.59,2.72-3.25,4-4.25,5.94
		c-0.31,0.6-0.67,1.29-1.12,2.09c-0.95,1.68-2.1,2.52-3.43,3.49c-1.4,1.01-2.98,2.16-4.8,4.6c-1.44,1.94-1.35,2.85-1.16,3.22
		c0.22,0.43,0.72,0.5,1,0.51c0.01,0,0.01,0,0.02,0c0.67,0,1.56-0.38,1.93-1.08c1.14-2.18,3.82-5.13,7.93-6.89
		c2.26-0.97,4.09-0.76,5.43-0.6c1.28,0.15,1.86,0.19,2.18-0.48c0.54-1.12,1.09-1.29,2.42-1.7c0.2-0.06,0.41-0.13,0.65-0.21
		c-0.24-0.07-0.46-0.18-0.66-0.32c-2.03-1.51-0.82-6.61,0.07-10.33c0.12-0.5,0.23-0.96,0.32-1.37c1-4.48-0.64-7.52-0.66-7.55
		l0.44-0.24c0.07,0.13,1.75,3.23,0.71,7.9c-0.09,0.41-0.2,0.88-0.32,1.38c-0.81,3.39-2.02,8.51-0.26,9.82
		c0.42,0.31,1,0.39,1.74,0.25c0.8-0.3,1.77-0.7,2.96-1.25l0.23,0.44c-1.19,0.69-2.21,1.12-3.06,1.3c-0.84,0.31-1.49,0.51-2.01,0.67
		c-1.32,0.41-1.68,0.52-2.12,1.44c-0.49,1.02-1.46,0.91-2.69,0.76c-1.28-0.15-3.03-0.35-5.17,0.56c-4,1.71-6.59,4.57-7.69,6.67
		C344.93,183.17,343.85,183.63,343.02,183.63z"/>
</g>
<g>
	<path d="M288.38,136.57c-0.13,0-0.25-0.02-0.36-0.06c-0.94-0.35-1.19-1.95-0.77-5.02c0.56-4.17,1.7-6.53,3.4-7.03
		c1.99-0.59,3.91,1.62,3.99,1.72l0.06,0.07v4.09l-0.04,0.06C294.21,131.07,290.48,136.57,288.38,136.57z M291.33,124.86
		c-0.18,0-0.37,0.02-0.55,0.08c-1.47,0.43-2.52,2.72-3.04,6.62c-0.48,3.57,0.08,4.34,0.46,4.49c1.21,0.45,4.3-3.32,6-5.86v-3.75
		C293.91,126.13,292.65,124.86,291.33,124.86z"/>
</g>
<g>
	<path d="M295.62,116.53c-0.24,0-0.42-0.08-0.54-0.16c-1.29-0.84-1.61-5.03-0.04-9.92c0.63-1.96,1.56-3.1,2.78-3.41
		c1.89-0.48,3.73,1.28,3.81,1.36l0.07,0.07l0,0.1c0.11,2.24-0.75,4.51-2.35,6.25c-0.63,0.68-0.82,1.41-1.03,2.18
		c-0.26,0.96-0.55,2.04-1.73,3.1C296.21,116.42,295.88,116.53,295.62,116.53z M298.48,103.46c-0.18,0-0.36,0.02-0.54,0.07
		c-1.04,0.26-1.86,1.29-2.43,3.07c-1.53,4.77-1.12,8.73-0.16,9.35c0.09,0.06,0.37,0.24,0.9-0.23c1.07-0.96,1.33-1.92,1.58-2.85
		c0.21-0.8,0.43-1.62,1.15-2.39c1.49-1.61,2.3-3.71,2.23-5.78C300.91,104.43,299.74,103.46,298.48,103.46z"/>
</g>
<g>
	<path d="M307.85,88.77c-0.55,0-1.26-0.31-2.03-1.45c-0.9-1.33-1.12-2.45-0.67-3.34c0.87-1.72,3.94-1.85,4.07-1.85l0.04,0l0.04,0.01
		c0.74,0.25,1.15,1.1,1.13,2.35c-0.03,1.73-0.87,3.83-2.17,4.22C308.15,88.74,308,88.77,307.85,88.77z M309.2,82.63
		c-0.38,0.02-2.91,0.23-3.6,1.58c-0.36,0.72-0.15,1.67,0.64,2.84c0.45,0.66,1.15,1.41,1.89,1.19c1.04-0.31,1.79-2.22,1.81-3.74
		C309.96,83.51,309.68,82.82,309.2,82.63z"/>
</g>
<g>
	<path d="M423.1,19.55c-0.11,0-0.23-0.01-0.35-0.03c-1.05-0.15-2.01-0.98-2.62-2.27c-0.23-0.48-0.23-0.95,0-1.4
		c0.86-1.69,4.82-2.47,4.99-2.5l0.3-0.06v0.3c0,0.88,1.13,2.93,1.57,3.65l0.2,0.34l-0.39,0.04c-0.01,0-1.07,0.13-2.01,1.18
		C424.34,19.28,423.74,19.55,423.1,19.55z M424.94,13.9c-0.89,0.2-3.74,0.94-4.37,2.18c-0.16,0.31-0.15,0.62,0.01,0.96
		c0.54,1.14,1.36,1.86,2.24,1.99c0.61,0.09,1.18-0.12,1.58-0.56c0.73-0.81,1.52-1.14,1.97-1.26
		C425.99,16.53,425.1,14.92,424.94,13.9z"/>
</g>
<g>
	<path d="M430.87,13.4c-0.76,0-1.77-0.4-2.58-1.36c-0.28-0.33-0.38-0.7-0.28-1.07c0.32-1.21,2.64-2.09,2.9-2.18L431,8.75l0.09,0.03
		c1.66,0.64,1.43,2.88,1.06,3.87c-0.14,0.38-0.48,0.64-0.95,0.72C431.09,13.39,430.98,13.4,430.87,13.4z M430.99,9.29
		c-0.7,0.27-2.29,1.03-2.5,1.81c-0.06,0.21,0,0.41,0.18,0.62c0.8,0.95,1.83,1.26,2.44,1.16c0.21-0.04,0.47-0.13,0.57-0.4
		C431.99,11.66,432.21,9.84,430.99,9.29z"/>
</g>
<g>
	<path d="M435.75,7.45c-0.47,0-0.96-0.04-1.48-0.13c-1.35-0.23-1.35-0.23-1.35-0.48c0-0.23,0.2-0.27,0.46-0.32
		c0.39-0.08,1.19-0.24,1.53-0.73c0.41-0.58,0.46-0.83,0.52-1.07c0.05-0.23,0.11-0.47,0.4-0.88l0.09-0.13l0.16,0.03
		c0.09,0.02,2.09,0.38,2.59,1.7c0.16,0.41,0.09,0.81-0.18,1.14C438.03,7.14,437,7.45,435.75,7.45z M434.25,6.81
		c0.04,0.01,0.08,0.01,0.12,0.02c1.97,0.34,3.32-0.05,3.74-0.56c0.16-0.19,0.19-0.41,0.1-0.65c-0.33-0.87-1.61-1.25-2.06-1.35
		c-0.15,0.24-0.19,0.39-0.23,0.56c-0.06,0.28-0.13,0.59-0.6,1.25C435.06,6.45,434.64,6.67,434.25,6.81z"/>
</g>
<g>
	<path d="M442.51,2.2c-0.86,0-0.94-0.38-0.96-0.88c0-0.14-0.01-0.28-0.04-0.44c-0.06-0.29,0.05-0.48,0.15-0.59
		c0.38-0.4,1.27-0.28,1.28-0.28l0,0c1.15,0.19,1.41,0.62,1.6,1.12l0.05,0.12c0.06,0.15,0.05,0.3-0.03,0.44
		c-0.07,0.12-0.3,0.47-1.97,0.51C442.56,2.2,442.53,2.2,442.51,2.2z M442.66,0.5c-0.22,0-0.53,0.03-0.63,0.15
		c-0.01,0.02-0.04,0.05-0.02,0.14c0.04,0.2,0.05,0.38,0.05,0.52c0.01,0.38,0.01,0.41,0.53,0.39c1.14-0.03,1.51-0.22,1.56-0.28
		l-0.06-0.1c-0.13-0.33-0.25-0.65-1.21-0.8C442.81,0.5,442.74,0.5,442.66,0.5z"/>
</g>
<g>
	<path d="M460.4,177.71c-0.4,0-0.81-0.06-1.18-0.18c-0.7-0.23-1.64-0.79-2.14-2.14c-0.21-0.57-0.17-1.12,0.12-1.61
		c0.88-1.51,3.84-2.02,3.97-2.04l0.11-0.02l0.09,0.06c1.21,0.91,2,2.39,1.97,3.67c-0.02,0.72-0.32,1.31-0.83,1.66
		C461.9,177.5,461.15,177.71,460.4,177.71z M461.15,172.24c-0.52,0.1-2.83,0.62-3.51,1.78c-0.21,0.36-0.24,0.75-0.08,1.19
		c0.42,1.16,1.22,1.64,1.82,1.84c1.06,0.35,2.19,0.07,2.84-0.36c0.49-0.32,0.6-0.86,0.61-1.26
		C462.86,174.35,462.17,173.05,461.15,172.24z"/>
</g>
<g>
	<path d="M482.31,179.05C482.3,179.05,482.3,179.05,482.31,179.05c-0.64-0.01-1.04-0.88-1.52-1.89c-0.25-0.52-0.5-1.07-0.79-1.5
		c-1.15-1.72-2.41-2.96-4.35-4.27c-0.28-0.19-0.52-0.35-0.74-0.49c-1.39-0.9-1.81-1.17-3.61-4.18l-0.19-0.31l0.36-0.06
		c1.42-0.25,2.49-0.91,3.17-1.96c1.52-2.35,0.64-5.93,0.63-5.97l0.47-0.16c0.85,1.96,1.7,3,2.55,3.08c1.21,0.11,2.37-1.6,3.5-3.25
		c0.44-0.64,0.86-1.25,1.29-1.76c0.29-0.44,0.61-0.77,1.03-0.99l0.26,0.43c-0.29,0.2-0.58,0.49-0.88,0.85
		c-0.29,0.43-0.56,1-0.91,1.72c-0.34,0.72-0.77,1.61-1.36,2.67c-1.07,1.93-1.09,2.73-1.11,4.05c-0.01,0.73-0.03,1.64-0.23,2.96
		c-0.37,2.38,0.28,2.7,1.37,3.22c0.5,0.24,1.06,0.51,1.64,1.01c1.93,1.69,2.05,2.73,0.63,5.59
		C483.11,178.67,482.72,179.05,482.31,179.05z M471.91,166.77c1.59,2.62,1.97,2.87,3.27,3.71c0.22,0.14,0.47,0.3,0.75,0.5
		c2,1.35,3.3,2.63,4.49,4.41c0.31,0.47,0.57,1.03,0.83,1.57c0.33,0.71,0.75,1.59,1.06,1.6c0,0,0,0,0,0c0.09,0,0.35-0.09,0.77-0.94
		c1.32-2.67,1.24-3.46-0.51-4.99c-0.52-0.46-1.05-0.71-1.52-0.94c-1.16-0.56-2.08-1-1.65-3.75c0.2-1.29,0.22-2.18,0.23-2.89
		c0.02-1.35,0.04-2.24,1.17-4.29c0.29-0.52,0.54-1,0.76-1.44c-1.02,1.42-2.11,2.64-3.31,2.53c-0.79-0.08-1.52-0.71-2.24-1.93
		c0.11,1.33,0.03,3.24-0.94,4.76C474.36,165.74,473.3,166.45,471.91,166.77z"/>
</g>
<g>
	<path d="M239.16,200.62c-1.96,0-3.63-0.22-3.95-1.08c-0.23-0.63,0.27-1.39,1.58-2.38h0c0.19-0.15,0.5-0.21,0.96-0.3
		c1.07-0.21,3.07-0.61,5.46-2.69c2.18-1.91,2.63-2.25,3.3-2.77c0.36-0.28,0.79-0.61,1.6-1.27l0.4-0.32
		c2.07-1.69,3.56-2.92,4.93-1.27c1.23,1.48,2.39,2.87,1.2,4.31c-1.05,1.27-1.25,2.35-1,2.86c0.09,0.18,0.06,0.38-0.08,0.52
		c-0.54,0.54-3.14,0.27-3.86-0.1c-0.46-0.23-1.45-0.11-3.63,1.77c-0.44,0.38-0.81,0.75-1.14,1.07c-0.88,0.87-1.58,1.56-2.68,1.56
		c-0.16,0-0.44,0.01-0.78,0.03C240.7,200.59,239.91,200.62,239.16,200.62z M237.09,197.55L237.09,197.55
		c-1.41,1.08-1.49,1.6-1.41,1.81c0.35,0.96,4.29,0.76,5.77,0.69c0.36-0.02,0.64-0.03,0.81-0.03c0.89,0,1.46-0.56,2.32-1.42
		c0.33-0.33,0.72-0.71,1.17-1.1c1.94-1.67,3.3-2.27,4.17-1.84c0.75,0.37,2.89,0.46,3.25,0.22c-0.38-0.82,0.03-2.11,1.08-3.37
		c0.88-1.06,0.12-2.09-1.2-3.67c-1.01-1.21-2.03-0.47-4.23,1.34l-0.4,0.33c-0.81,0.66-1.24,1-1.61,1.28
		c-0.67,0.52-1.1,0.85-3.28,2.75c-2.49,2.17-4.57,2.58-5.69,2.81C237.5,197.42,237.19,197.48,237.09,197.55z"/>
</g>
<g>
	<path d="M334.97,374.63c-0.44,0-1.04-0.35-1.81-1.05c-2.07-1.88-3.01-5.31-3.83-8.34c-0.65-2.39-1.27-4.64-2.26-5
		c-1.41-0.51-5.37,0.48-7.21,2.56c-1,1.13-1.19,2.35-0.55,3.61l0.69,1.38l-1.09-1.09c-4.62-4.62-4.3-6.71-3.82-9.87
		c0.05-0.31,0.1-0.64,0.14-0.98c0.38-2.82,0.83-7.99-0.5-11.02c-0.41-0.95-0.51-2.26-0.6-3.43c-0.09-1.15-0.19-2.44-0.61-2.59
		c-0.19-0.06-0.66,0.02-1.81,1.28c-2.93,3.19-3.75,6.32-4.15,7.82c-0.12,0.45-0.19,0.72-0.28,0.87l-0.26,0.42l-0.18-0.46
		c-0.93-2.41-0.78-4.9-0.61-7.52c0.14-2.27,0.29-4.62-0.26-7.07c-0.73-3.25-1.96-8.68-3.83-9.09c-0.61-0.13-1.31,0.3-2.08,1.29
		c-0.95,1.24-1.7,2.1-2.3,2.79c-1.51,1.74-1.82,2.1-1.43,4.05l0.15,0.76l-0.57-0.53c-1.63-1.53-2.64-4.12-3.62-6.63
		c-1.24-3.17-2.4-6.16-4.58-6.35c-4.42-0.37-7.47,2.34-9.35,8.29c-2.02,6.4-2.31,9.86,0.11,16.55c2.41,6.65,10.11,15.1,14.46,15.86
		l-0.09,0.49c-4.57-0.8-12.34-9.27-14.84-16.18c-2.5-6.92-2.09-10.64-0.12-16.87c1.93-6.12,5.27-9.03,9.87-8.64
		c2.49,0.21,3.71,3.34,5.01,6.66c0.84,2.16,1.71,4.38,2.95,5.87c-0.17-1.53,0.33-2.11,1.68-3.66c0.59-0.69,1.33-1.54,2.28-2.76
		c0.89-1.16,1.76-1.66,2.58-1.48c2.01,0.44,3.14,4.73,4.21,9.47c0.57,2.52,0.42,4.91,0.27,7.21c-0.15,2.31-0.29,4.51,0.34,6.61
		c0.01-0.02,0.01-0.05,0.02-0.07c0.41-1.54,1.26-4.74,4.27-8.03c1.07-1.17,1.79-1.61,2.34-1.42c0.73,0.25,0.83,1.48,0.94,3.02
		c0.09,1.12,0.18,2.4,0.56,3.27c1.38,3.14,0.92,8.42,0.53,11.29c-0.05,0.34-0.1,0.67-0.15,0.99c-0.44,2.93-0.72,4.77,2.91,8.65
		c-0.19-1.08,0.14-2.13,0.99-3.09c1.89-2.14,5.97-3.34,7.75-2.7c1.05,0.38,1.63,1.97,2.24,4.11c0.11-0.99,0.39-1.99,0.7-2.92
		c0.67-2.02,0.66-2.04,0.5-2.48c-0.09-0.24-0.22-0.61-0.34-1.35c-0.2-1.28,0.14-2.27,0.56-3.54c0.32-0.94,0.67-1.98,0.9-3.41
		c-2.39,1.32-4.32,1.59-5.74,0.8c-2.57-1.42-3.01-6.01-3.11-9.85c-0.11-4.04,0.04-4.22,0.27-4.5c0.03-0.03,0.06-0.07,0.09-0.17
		c-0.34,0.49-0.6,0.68-0.89,0.69c-0.01,0-0.01,0-0.02,0c-0.46,0-0.77-0.5-1.23-1.24c-0.35-0.57-0.79-1.28-1.43-2.02
		c-1.53-1.76-1.15-2.83-0.63-4.3c0.29-0.83,0.62-1.77,0.74-3.09c0.27-3.02,0.56-3.69,1.43-5.68c0.23-0.53,0.5-1.15,0.82-1.94
		c0.86-2.1,1.48-2.38,1.89-2.57c0.24-0.11,0.33-0.15,0.33-1.12c0-2.06,0.05-2.15,1.66-3.09c0.09-0.05,0.19-0.11,0.29-0.17
		c-1.51,0.17-2.91,0.6-5.65,2.94c-0.59,0.5-1.04,0.91-1.39,1.23c-1.41,1.28-1.52,1.3-2.96,0.72c-0.35-0.14-0.8-0.32-1.39-0.53
		c-2.71-0.95-2.25-3.74-1.77-6.69c0.17-1.05,0.35-2.13,0.4-3.17c0.17-3.79,2.04-6.34,3.4-8.2l0.25-0.34
		c0.16-0.22,0.33-0.45,0.52-0.69c0.97-1.28,2.19-2.87,1.96-4.14c-0.1-0.53-0.43-0.97-1.03-1.34c-1.83-1.15-1.21-2.29-0.49-3.6
		c0.49-0.9,1.1-2.02,1.23-3.5c0.09-1.02,0.37-2.17,0.82-3.44c-0.29,0.39-0.46,0.51-0.7,0.66c-0.24,0.15-0.58,0.36-1.41,1.26
		c-2.01,2.18-2.43,2.02-4.65,0.67l-0.47-0.28c-0.78-0.47-1.17-0.87-1.25-1.29c-0.09-0.46,0.19-0.82,0.48-1.21
		c0.26-0.35,0.56-0.74,0.63-1.26c-9.24-0.86-13.2-5.01-14.9-8.37c-2.08-4.11-1.62-8.86-0.5-10.7c0.83-1.35,1.9-2.32,2.86-2.99
		c-1.95,0.6-5.24,1.59-10.64,3.19c-4.08,1.21-8.06,0.53-11.5-1.97c-4.05-2.94-6.37-7.64-6.42-9.77c-0.04-1.73,0.86-2.29,1.35-2.53
		c-0.23-0.1-0.59-0.26-1.04-0.44l-0.16-0.06c-2.97-1.23-2.72-4.25-2.5-6.91c0.06-0.68,0.11-1.31,0.11-1.9
		c0-1.74,0.28-2.12,0.81-2.68c0.32-0.34,0.71-0.75,1.19-1.8c0.6-1.33,0.5-1.89,0.39-2.54c-0.11-0.61-0.23-1.31,0.2-2.66
		c0.76-2.45,0.56-3.4,0.06-5.7l-0.15-0.7c-0.42-1.96-0.4-2.12-0.2-2.78c0.08-0.26,0.18-0.61,0.28-1.26l0.04-0.22
		c0.31-1.96,0.35-2.22,1.45-4.4c0.3-0.6,0.54-1.03,0.72-1.34c0.14-0.25,0.28-0.49,0.31-0.6c-0.07-0.03-0.23-0.07-0.36-0.11
		c-0.95-0.26-1.82-0.5-6.6,0.01c-4.94,0.52-19.47,5.87-21.17,7.08c-1.08,0.77-1.08,0.91-1.06,1.49c0.01,0.34,0.02,0.8-0.13,1.53
		c-0.39,1.87-1.16,2.18-2.83,2.86c-0.3,0.12-0.63,0.25-1,0.41c-1.23,0.53-1.54,0.42-1.99,0.19c-0.35-0.18-0.83-0.43-2.63-0.18
		c-2.27,0.32-3.5,1.79-4.92,3.5c-0.83,1-1.69,2.03-2.85,2.97c-0.58,0.47-1.02,0.83-1.38,1.14c-1.64,1.37-1.98,1.65-8.16,5.66
		c-5.23,3.39-10.42,9.31-13.85,13.23c-1.54,1.76-2.75,3.14-3.55,3.83c-1.28,1.11-2.48,2.89-4.29,5.58
		c-1.8,2.67-4.04,5.98-7.43,10.27c-4.77,6.02-4.85,6.81-5.36,11.97c-0.22,2.18-0.51,5.16-1.28,9.63c-0.93,5.4-0.42,8.94,1.51,10.53
		c1.97,1.61,4.82,0.54,4.85,0.53c0.17-0.06,15.82-5.13,25.18-11.56c9.69-6.65,23.46-19.05,24.99-21.66l0.43,0.25
		c-1.69,2.89-16,15.55-25.14,21.82c-9.42,6.47-25.14,11.57-25.3,11.62c-0.11,0.04-3.13,1.19-5.33-0.61c-2.08-1.7-2.65-5.4-1.69-11
		c0.77-4.45,1.06-7.43,1.28-9.59c0.51-5.17,0.61-6.1,5.47-12.23c3.38-4.27,5.62-7.58,7.41-10.24c1.84-2.72,3.05-4.52,4.38-5.67
		c0.77-0.67,1.97-2.04,3.5-3.78c3.45-3.94,8.66-9.89,13.95-13.32c6.15-3.99,6.49-4.27,8.12-5.62c0.37-0.31,0.81-0.67,1.39-1.15
		c1.12-0.91,1.97-1.92,2.78-2.9c1.43-1.71,2.78-3.33,5.24-3.67c1.95-0.27,2.51,0.02,2.92,0.23c0.31,0.16,0.49,0.25,1.56-0.21
		c0.37-0.16,0.71-0.3,1.01-0.42c1.64-0.66,2.19-0.88,2.53-2.49c0.14-0.67,0.13-1.08,0.12-1.41c-0.02-0.75,0.03-1.03,1.27-1.91
		c1.72-1.23,16.41-6.64,21.4-7.17c4.88-0.51,5.79-0.26,6.75,0c0.41,0.11,0.64,0.18,0.74,0.4c0.1,0.24-0.03,0.48-0.35,1.04
		c-0.18,0.31-0.42,0.74-0.71,1.32c-1.06,2.12-1.09,2.32-1.4,4.26l-0.03,0.22c-0.11,0.68-0.22,1.05-0.3,1.32
		c-0.16,0.55-0.19,0.64,0.21,2.53l0.15,0.69c0.5,2.32,0.73,3.38-0.07,5.96c-0.39,1.24-0.28,1.84-0.18,2.43
		c0.12,0.7,0.24,1.36-0.43,2.84c-0.51,1.13-0.95,1.6-1.28,1.94c-0.45,0.47-0.67,0.71-0.67,2.33c0,0.61-0.05,1.26-0.11,1.94
		c-0.22,2.61-0.44,5.32,2.19,6.41l0.16,0.06c1.36,0.56,1.54,0.64,1.54,0.91c0,0.22-0.19,0.31-0.37,0.4
		c-0.42,0.2-1.21,0.57-1.17,2.12c0.05,1.78,2.16,6.43,6.21,9.38c3.31,2.4,7.13,3.06,11.06,1.89c10.65-3.16,13.1-3.95,13.21-3.99
		c0,0,0,0,0,0l0,0v0l0.16,0.48c-0.03,0.01-3.2,1.09-5.01,4.06c-0.89,1.45-1.65,5.94,0.52,10.22c1.65,3.27,5.55,7.33,14.74,8.12
		l0.23,0.02v0.23c0,0.81-0.41,1.35-0.75,1.79c-0.27,0.36-0.43,0.59-0.39,0.81c0.05,0.26,0.39,0.58,1.02,0.96l0.47,0.28
		c2.11,1.28,2.24,1.36,4.02-0.58c0.88-0.95,1.24-1.18,1.51-1.34c0.33-0.2,0.47-0.29,1.55-2.05l0.45-0.74
		c0.23-0.37,0.3-0.5,0.52-0.39s0.12,0.3,0.02,0.52c-1.11,2.3-1.75,4.29-1.89,5.91c-0.14,1.58-0.78,2.75-1.29,3.69
		c-0.74,1.36-1.12,2.05,0.32,2.94c0.71,0.44,1.13,1.01,1.26,1.67c0.27,1.49-1.02,3.18-2.05,4.53c-0.18,0.24-0.35,0.46-0.51,0.68
		l-0.25,0.35c-1.33,1.81-3.15,4.29-3.3,7.93c-0.05,1.07-0.23,2.17-0.4,3.23c-0.47,2.86-0.88,5.33,1.44,6.14
		c0.6,0.21,1.05,0.39,1.41,0.54c1.2,0.48,1.2,0.49,2.44-0.63c0.36-0.32,0.81-0.73,1.4-1.24c3.36-2.85,4.78-2.97,6.76-3.13l1.28-0.11
		l-0.88,0.55c-0.49,0.3-0.89,0.54-1.22,0.73c-1.41,0.82-1.41,0.82-1.41,2.66c0,1.12-0.14,1.35-0.62,1.57
		c-0.32,0.15-0.85,0.39-1.63,2.3c-0.33,0.79-0.6,1.42-0.83,1.95c-0.86,1.98-1.12,2.58-1.39,5.53c-0.13,1.39-0.48,2.4-0.77,3.21
		c-0.51,1.46-0.8,2.27,0.54,3.81c0.67,0.77,1.12,1.5,1.48,2.08c0.32,0.52,0.62,1.01,0.8,1.01c0,0,0,0,0,0
		c0.2-0.01,0.57-0.51,1.08-1.49l0.54-1.02l-0.06,1.15c-0.07,1.21-0.19,1.44-0.36,1.65c-0.12,0.14-0.26,0.31-0.16,4.17
		c0.1,3.71,0.51,8.13,2.86,9.43c1.34,0.74,3.25,0.39,5.69-1.06l0.44-0.26l-0.07,0.51c-0.24,1.74-0.66,3-1,4.01
		c-0.42,1.24-0.72,2.14-0.54,3.3c0.11,0.69,0.23,1.01,0.31,1.25c0.22,0.61,0.21,0.71-0.5,2.81c-1.31,3.93-0.82,6.22,1.59,7.42
		c1.96,0.98,3.48,3.88,3.44,5.25c-0.02,0.51-0.24,0.71-0.43,0.79C335.16,374.61,335.07,374.63,334.97,374.63z M330.65,368.02
		c0.66,2.04,1.51,3.98,2.84,5.18c1.12,1.02,1.49,0.93,1.55,0.91c0.11-0.04,0.12-0.26,0.13-0.35c0.04-1.22-1.39-3.9-3.16-4.78
		C331.46,368.7,331.01,368.38,330.65,368.02z"/>
</g>
<g>
	<path d="M260.24,231.06l-0.5-0.07c0.04-0.29,0.11-0.57,0.17-0.84c0.23-0.98,0.39-1.62-0.82-2.34c-0.32-0.19-0.66-0.37-1.01-0.56
		c-1.57-0.83-3.35-1.77-4.69-4.35c-1.05-2.03-0.22-2.57,0.84-3.26c0.71-0.46,1.58-1.03,2.25-2.24c1.77-3.18,6.65-3.22,6.86-3.22v0.5
		c-0.05,0-4.79,0.04-6.42,2.96c-0.73,1.32-1.67,1.93-2.42,2.42c-1.04,0.68-1.51,0.99-0.67,2.61c1.27,2.44,2.97,3.34,4.48,4.14
		c0.36,0.19,0.7,0.37,1.03,0.57c1.52,0.91,1.28,1.92,1.05,2.89C260.34,230.52,260.27,230.79,260.24,231.06z"/>
</g>
<g>
	<path d="M233.53,243.78c-0.2,0-0.41-0.01-0.65-0.01c-0.3-0.01-0.63-0.02-1.01-0.02c-2.32,0-2.35-1.68-2.39-3.63
		c-0.01-0.31-0.01-0.63-0.03-0.96c-0.07-1.5-0.56-1.63-1.75-1.93c-0.51-0.13-1.14-0.29-1.88-0.6c-0.75-0.32-1.22-0.8-1.39-1.41
		c-0.31-1.11,0.48-2.24,0.52-2.29l0.41,0.29c-0.01,0.01-0.69,0.99-0.44,1.86c0.13,0.46,0.5,0.82,1.11,1.08
		c0.7,0.3,1.28,0.45,1.8,0.58c1.23,0.31,2.04,0.51,2.12,2.39c0.02,0.33,0.02,0.66,0.03,0.97c0.05,2.12,0.15,3.14,1.89,3.14
		c0.38,0,0.72,0.01,1.02,0.02c1.58,0.04,1.95,0.05,2.65-1.26c0.59-1.1,0.73-1.94,0.9-2.92c0.09-0.5,0.18-1.02,0.33-1.61
		c0.14-0.52,0.16-0.89,0.17-1.23c0.04-0.84,0.12-1.37,1.39-2.55c0.57-0.54,0.91-0.97,1.18-1.31c0.65-0.82,0.94-1.1,2.33-0.93
		l-0.06,0.5c-1.18-0.14-1.33,0.05-1.88,0.75c-0.27,0.34-0.63,0.8-1.23,1.36c-1.18,1.1-1.2,1.52-1.23,2.21
		c-0.02,0.34-0.04,0.76-0.19,1.33c-0.15,0.57-0.24,1.07-0.32,1.56c-0.17,0.97-0.33,1.89-0.96,3.07
		C235.27,243.59,234.68,243.78,233.53,243.78z"/>
</g>
<g>
	<path d="M223.41,250.36c-0.21,0-0.37-0.16-0.54-0.34c-0.28-0.28-0.69-0.71-1.57-0.89c-0.72-0.14-1.08-0.32-1.26-0.6
		c-0.2-0.32-0.11-0.68,0.01-1.14c0.14-0.54,0.32-1.29,0.14-2.36c-0.48-2.9,3.19-4.66,3.34-4.73l0.11-0.02c0.8,0,1.32,0.17,1.63,0.53
		c0.43,0.5,0.35,1.28,0.22,2.16c-0.2,1.28-0.23,1.39-0.48,2.31l-0.15,0.58c-0.14,0.52-0.07,0.67,0.01,0.85
		c0.18,0.41,0.25,0.79-0.43,2.28c-0.45,0.98-0.64,1.32-0.95,1.37C223.46,250.36,223.44,250.36,223.41,250.36z M223.69,240.78
		c-0.42,0.21-3.41,1.81-3.02,4.17c0.2,1.17-0.01,1.98-0.15,2.56c-0.09,0.36-0.15,0.61-0.07,0.75c0.09,0.15,0.4,0.27,0.94,0.38
		c1.03,0.21,1.53,0.72,1.83,1.03c0.08,0.08,0.17,0.18,0.21,0.19c0.08-0.07,0.43-0.83,0.54-1.08c0.63-1.39,0.53-1.64,0.42-1.87
		c-0.12-0.28-0.2-0.54-0.03-1.18l0.16-0.58c0.25-0.91,0.27-1.01,0.46-2.26c0.14-0.88,0.16-1.45-0.1-1.76
		C224.69,240.9,224.3,240.79,223.69,240.78z"/>
</g>
<g>
	<path d="M233.88,250.36c-4.47,0-4.99-3.24-5-3.27l0.49-0.07c0.02,0.12,0.51,2.91,4.67,2.85c0.96-0.02,1.69-0.02,2.26-0.01
		c1.93,0,1.93,0.01,3.09-0.85l0.12-0.09c0.8-0.58,1.04-1.05,1.22-1.4c0.2-0.38,0.37-0.71,1.1-0.71c0.67,0,1,0.4,1.29,0.74
		c0.3,0.36,0.59,0.7,1.26,0.79c1.37,0.17,2.57-0.57,2.58-0.58l0.27,0.42c-0.05,0.03-1.36,0.85-2.91,0.65
		c-0.87-0.11-1.26-0.58-1.58-0.96c-0.27-0.33-0.47-0.56-0.9-0.56c-0.43,0-0.48,0.09-0.66,0.44c-0.19,0.36-0.48,0.92-1.37,1.57
		l-0.12,0.09c-1.27,0.93-1.35,0.94-3.39,0.95c-0.57,0-1.29,0-2.24,0.01C233.99,250.36,233.94,250.36,233.88,250.36z"/>
</g>
<g>
	<path d="M245.98,241.3l-0.11-0.2h-0.28c0-0.23,0-0.32,2.72-0.82c0.78-0.14,1.35-0.19,1.76-0.22c0.92-0.07,0.94-0.07,1.13-0.85
		c0.19-0.75,0.08-1.41,0-1.89c-0.07-0.41-0.12-0.71,0.03-0.94l0.42,0.28c-0.04,0.06,0.01,0.36,0.04,0.58
		c0.09,0.52,0.2,1.24-0.01,2.09c-0.27,1.08-0.57,1.15-1.58,1.23c-0.4,0.03-0.95,0.08-1.71,0.21
		C246.31,241.15,246,241.29,245.98,241.3z"/>
</g>
<g>
	<path d="M254.15,252.36l-0.39-0.32c0.01-0.01,1.06-1.29,2.77-2.89c0.6-0.56,1.13-0.9,1.56-1.17c0.82-0.52,1.13-0.71,0.88-1.68
		c-0.07-0.26-0.13-0.49-0.2-0.7c-0.35-1.22-0.54-1.89,0.33-3.06c0.79-1.06,1.35-1.5,1.88-1.93c0.12-0.09,0.24-0.19,0.36-0.29
		l0.32,0.38c-0.13,0.1-0.25,0.2-0.37,0.3c-0.54,0.43-1.04,0.83-1.79,1.83c-0.73,0.97-0.59,1.45-0.25,2.62
		c0.06,0.22,0.13,0.45,0.2,0.72c0.35,1.32-0.26,1.7-1.09,2.22c-0.41,0.26-0.93,0.59-1.49,1.11
		C255.2,251.09,254.17,252.35,254.15,252.36z"/>
</g>
<g>
	<path d="M219.5,269.73c-6.37-0.29-8.23-1.49-10.59-2.99c-0.41-0.26-0.84-0.54-1.31-0.82c-1.97-1.17-2.18-2.35-2.37-3.5
		c-0.12-0.71-0.24-1.38-0.78-2.05c-1.45-1.79-4.48-4.09-4.52-4.12l0.3-0.4c0.13,0.1,3.11,2.37,4.6,4.2
		c0.63,0.77,0.76,1.54,0.89,2.28c0.19,1.08,0.36,2.11,2.14,3.16c0.48,0.28,0.91,0.56,1.33,0.83c2.3,1.47,4.11,2.63,10.35,2.92
		L219.5,269.73z"/>
</g>
<g>
	<path d="M211.37,258.75l-0.42-0.27c0.02-0.03,1.72-2.65,2.84-5.23c1.14-2.63,1.61-3.26,1.63-3.29l0.4,0.3
		c0,0.01-0.47,0.64-1.57,3.19C213.11,256.07,211.39,258.72,211.37,258.75z"/>
</g>
<g>
	<path d="M222.52,265.91c-0.3-0.78-1.16-1.37-2.41-1.68c-0.49-0.12-0.66-0.01-0.97,0.2c-0.45,0.3-1.06,0.7-2.86,0.5
		c-0.96-0.11-1.65-0.48-2.07-1.1c-0.69-1.03-0.33-2.36-0.32-2.42l0.48,0.13c0,0.01-0.31,1.17,0.25,2.01
		c0.33,0.49,0.91,0.79,1.71,0.88c1.62,0.19,2.12-0.15,2.52-0.42c0.34-0.23,0.66-0.44,1.36-0.27c1.42,0.35,2.4,1.05,2.76,1.98
		L222.52,265.91z"/>
</g>
<g>
	<path d="M236.16,266.77c-1.39,0-2.33-0.85-3.12-1.7c-0.63-0.68-0.7-0.98-0.78-1.66c-0.08-0.57-0.19-1.44-0.84-3.23
		c-1.4-3.84,0.51-7.11,0.59-7.25l0.43,0.26c-0.02,0.03-1.87,3.21-0.55,6.82c0.67,1.85,0.79,2.75,0.87,3.34
		c0.08,0.59,0.1,0.79,0.66,1.38c1.2,1.3,2.24,1.93,3.99,1.31c1.93-0.68,5.1-2.31,6.44-3.46l0.33,0.38c-1.38,1.19-4.63,2.86-6.6,3.56
		C237.05,266.69,236.58,266.77,236.16,266.77z"/>
</g>
<g>
	<path d="M248.69,256.7c-0.42,0-0.92-0.11-1.56-0.43c-1.12-0.56-1.21-1.23-1.31-2.01c-0.04-0.33-0.09-0.71-0.23-1.13
		c-0.1-0.32-0.06-0.62,0.11-0.9c0.6-0.99,2.71-1.38,2.95-1.42l0.09-0.02l0.08,0.05c1.43,0.88,1.99,2.78,1.89,4.17
		c-0.03,0.39-0.13,1.08-0.55,1.27l-0.15,0.07C249.64,256.52,249.24,256.7,248.69,256.7z M248.65,251.32
		c-0.65,0.13-2.12,0.53-2.51,1.17c-0.1,0.16-0.12,0.32-0.06,0.49c0.15,0.46,0.2,0.86,0.25,1.22c0.1,0.74,0.15,1.19,1.04,1.63
		c1.24,0.62,1.83,0.35,2.46,0.06l0.16-0.07c0.07-0.03,0.21-0.27,0.25-0.84C250.3,253.76,249.84,252.11,248.65,251.32z"/>
</g>
<g>
	<path d="M240.67,260.96c-1.12,0-2.54-0.44-3.96-0.94c-0.8-0.28-1.29-0.64-1.49-1.09c-0.27-0.6,0-1.24,0.28-1.91
		c0.14-0.34,0.29-0.68,0.37-1.03c0.29-1.28,1.6-2.74,2.3-3.52c0.17-0.19,0.3-0.34,0.37-0.43l0.17-0.23l0.2,0.2
		c0.03,0.03,2.54,2.54,3.68,3.87c1.21,1.41,0.77,2.38,0.11,3.86l-0.07,0.15C242.28,260.68,241.57,260.96,240.67,260.96z
		 M238.76,252.57c-0.06,0.07-0.14,0.15-0.22,0.24c-0.67,0.75-1.93,2.14-2.19,3.29c-0.09,0.39-0.24,0.76-0.39,1.12
		c-0.25,0.59-0.46,1.11-0.28,1.51c0.14,0.32,0.54,0.59,1.2,0.82c2.78,0.97,4.75,1.36,5.3,0.13l0.07-0.15
		c0.65-1.44,0.97-2.16-0.03-3.33C241.27,255.12,239.37,253.18,238.76,252.57z"/>
</g>
<g>
	<path d="M254.86,274.59c-0.12-0.01-2.95-0.32-4.15-1.93c-0.47-0.63-0.63-1.37-0.47-2.2c0.23-1.23,0.29-2.03,0.34-2.56
		c0.08-0.93,0.1-1.24,0.88-1.61c0.8-0.37,1.56,0.42,2.3,1.19c0.42,0.43,0.85,0.88,1.25,1.08c0.83,0.42,1.54,0.66,2.81,1.09
		c0.43,0.14,0.92,0.31,1.49,0.51c2.23,0.77,4.74,0.32,4.99,0.09l0.41,0.29c-0.34,0.52-3.25,0.9-5.56,0.1
		c-0.58-0.2-1.06-0.36-1.49-0.51c-1.29-0.44-2.01-0.68-2.88-1.11c-0.47-0.24-0.94-0.72-1.38-1.18c-0.62-0.64-1.26-1.3-1.73-1.08
		c-0.52,0.24-0.52,0.29-0.59,1.19c-0.04,0.54-0.11,1.36-0.34,2.61c-0.13,0.69,0,1.29,0.38,1.81c1.07,1.44,3.77,1.73,3.8,1.73
		L254.86,274.59z"/>
</g>
<g>
	<path d="M279.85,268.4c-2.39-0.87-3.15-2.45-3.96-4.12c-0.54-1.11-1.09-2.25-2.14-3.4l-0.14-0.15c-2.33-2.54-2.33-2.54-5.85-3.98
		l-1.13-0.47c-1.04-0.43-2.02-0.42-2.91,0.02c-2.41,1.2-3.48,5.19-3.49,5.23l-0.48-0.13c0.04-0.17,1.13-4.25,3.75-5.55
		c1.02-0.51,2.14-0.52,3.32-0.03l1.13,0.47c3.59,1.47,3.64,1.51,6.03,4.1l0.14,0.15c1.1,1.2,1.7,2.43,2.22,3.52
		c0.8,1.65,1.49,3.07,3.68,3.87L279.85,268.4z"/>
</g>
<g>
	<path d="M271.63,300.8c-0.94,0-1.76-0.13-2.36-0.43c-0.75-0.38-1.51-1.19-0.9-2.93l0,0c0.42-1.2,0.74-1.84,1-2.35
		c0.5-0.99,0.77-1.54,1.22-5.15c0.24-1.95,0.23-3.28,0.21-4.35c-0.03-1.93-0.04-2.99,1.56-5.04c0.72-0.93,1.21-1.75,1.64-2.48
		c1.02-1.72,1.76-2.97,4.47-3.95c1-0.36,1.85-0.75,2.66-1.12c2.23-1.01,3.98-1.81,7.08-1.3c0.45,0.07,0.88,0.14,1.3,0.21
		c3.48,0.53,5.99,0.92,6.63,4.46c0.07,0.38,0.14,0.74,0.21,1.07c0.59,2.96,0.85,4.31-3.21,6.4c-4.48,2.31-6.52,3.46-7.83,6.57
		c-1.1,2.62-2.3,4.34-3.46,6c-0.29,0.42-0.58,0.83-0.86,1.25C280.09,299.02,275.09,300.8,271.63,300.8z M268.84,297.6L268.84,297.6
		c-0.4,1.14-0.19,1.9,0.65,2.32c2.68,1.34,10.17-1.16,11.09-2.54c0.28-0.42,0.57-0.84,0.87-1.26c1.14-1.64,2.32-3.34,3.4-5.91
		c1.44-3.41,3.93-4.7,8.06-6.82c3.73-1.92,3.53-2.91,2.95-5.86c-0.07-0.34-0.14-0.69-0.21-1.08c-0.58-3.19-2.82-3.53-6.22-4.06
		c-0.42-0.06-0.85-0.13-1.3-0.21c-2.94-0.49-4.64,0.28-6.79,1.26c-0.82,0.37-1.67,0.76-2.7,1.13c-2.54,0.93-3.21,2.04-4.22,3.74
		c-0.44,0.74-0.94,1.58-1.68,2.53c-1.49,1.91-1.48,2.86-1.45,4.73c0.01,1.08,0.03,2.43-0.21,4.42c-0.46,3.7-0.75,4.27-1.27,5.31
		C269.57,295.81,269.26,296.43,268.84,297.6z"/>
</g>
<g>
	<path d="M267.49,318.93l-0.5-0.03c0.03-0.44,0-0.91-0.02-1.41c-0.08-1.56-0.18-3.49,1.22-5.8c0.63-1.03,0.73-1.76,0.81-2.39
		c0.18-1.31,0.42-2.13,3.39-3.65c2.79-1.43,3.19-1.54,3.84-1.72c0.45-0.12,1.01-0.27,2.59-0.92c1.12-0.46,2.01-0.71,2.72-0.91
		c1.76-0.49,2.35-0.65,2.96-3.05l0.48,0.12c-0.69,2.68-1.51,2.9-3.32,3.4c-0.7,0.19-1.57,0.43-2.67,0.89
		c-1.61,0.66-2.18,0.82-2.65,0.95c-0.62,0.17-1,0.27-3.74,1.68c-2.88,1.47-2.97,2.19-3.12,3.27c-0.09,0.65-0.2,1.46-0.88,2.59
		c-1.33,2.18-1.23,3.95-1.15,5.51C267.49,317.98,267.51,318.47,267.49,318.93z"/>
</g>
<g>
	<path d="M299.04,316.83c-0.28,0-0.55-0.02-0.83-0.07c-4.4-0.7-6.82-3.75-8.58-5.98l-0.05-0.06c-1.72-2.18-2.16-8.2-0.05-13.38
		c0.07-0.43,0.82-4.33,5.75-6.57c3.8-1.73,9.26-1.91,12.43-0.41c1.42,0.67,2.35,1.66,2.67,2.86c0.38,1.42,0.82,2.4,1.17,3.18
		c0.69,1.54,1.07,2.39-0.05,4.28c-1.63,2.73-2.31,4.12-3.99,7.82C305,314.03,302.15,316.83,299.04,316.83z M302.35,289.84
		c-2.35,0-4.84,0.47-6.86,1.39c-4.84,2.2-5.46,6.18-5.46,6.22l-0.02,0.06c-2.06,5.03-1.67,10.84-0.04,12.91l0.05,0.06
		c1.71,2.17,4.05,5.13,8.26,5.8c3.18,0.51,6.14-2.18,8.77-7.98c1.69-3.71,2.38-5.11,4.02-7.87c0.99-1.66,0.71-2.29,0.03-3.82
		c-0.36-0.8-0.8-1.79-1.2-3.26c-0.29-1.07-1.1-1.93-2.41-2.54C306.12,290.16,304.29,289.84,302.35,289.84z"/>
</g>
<g>
	<path d="M278.1,391.33c-0.13,0-0.27,0-0.41-0.01c-4.53-0.13-4.93-2.36-5.39-4.93c-0.16-0.9-0.33-1.83-0.67-2.79
		c-1.06-2.91-0.43-4.93,0.24-7.07c0.22-0.7,0.44-1.43,0.61-2.21c0.47-2.17-0.32-3.24-1.32-4.59c-0.38-0.52-0.78-1.06-1.14-1.71
		c-0.85-1.53-1.59-1.43-2.94-1.23c-0.53,0.08-1.12,0.16-1.82,0.16c-0.27,0-0.51,0-0.73-0.01c-0.73-0.02-1.21-0.02-1.39,0.18
		c-0.24,0.27-0.17,1.14,0.05,2.64l0.08,0.57l-0.47-0.32c-4.24-2.92-3.32-5.54-2.59-7.64c0.25-0.72,0.49-1.39,0.51-2.01
		c0.02-0.64-0.05-1.02-0.24-1.21c-0.25-0.25-0.81-0.22-1.59-0.19c-0.73,0.03-1.64,0.07-2.76-0.07l-0.7-0.09l0.6-0.37
		c3.79-2.36,5.81-12.6,5.98-16.28c0.18-3.93,0.09-6.55-3.76-18.8c-4.05-12.84-14.69-37.58-15.83-38.97
		c-1.21-1.47-2.56-2.95-4.51-3.52c-0.15-0.04-0.29-0.02-0.43,0.08c-1.06,0.73-1.73,4.6-1.99,6.79c0.18,0.63,0.06,0.79-0.01,0.89
		c-0.1,0.14-0.27,0.17-0.39,0.14l-0.21-0.05l0.02-0.21c0.01-0.11,0.03-0.37,0.07-0.72c-0.18-0.57-0.67-1.68-1.96-3.85
		c-0.43-0.73-0.83-1.1-1.1-1.04c-0.98,0.26-1.47,5.11-1.5,8.47l-0.5,0c0.01-1.41,0.17-8.49,1.87-8.94c0.52-0.14,1.07,0.27,1.66,1.27
		c0.82,1.39,1.34,2.37,1.66,3.08c0.3-2.12,0.94-5.43,2.09-6.22c0.27-0.18,0.56-0.23,0.85-0.15c2.09,0.61,3.5,2.16,4.76,3.69
		c1.32,1.61,12.08,26.95,15.92,39.14c3.88,12.32,3.97,14.98,3.79,18.97c-0.17,3.7-2.03,13.25-5.67,16.28c0.8,0.06,1.47,0.03,2.03,0
		c0.91-0.04,1.56-0.07,1.96,0.33c0.29,0.29,0.42,0.78,0.39,1.58c-0.02,0.7-0.27,1.41-0.53,2.16c-0.72,2.06-1.46,4.18,1.93,6.73
		c-0.19-1.4-0.19-2.08,0.15-2.46c0.33-0.38,0.87-0.37,1.77-0.35c0.22,0,0.46,0.01,0.72,0.01c0.66,0,1.24-0.08,1.75-0.16
		c1.36-0.19,2.43-0.35,3.45,1.48c0.34,0.62,0.73,1.15,1.11,1.65c0.99,1.34,1.93,2.61,1.41,5c-0.17,0.8-0.4,1.54-0.62,2.25
		c-0.67,2.15-1.24,4.01-0.24,6.75c0.36,0.99,0.54,1.99,0.7,2.87c0.46,2.55,0.78,4.4,4.91,4.52c2.71,0.08,4.35-0.66,5.78-1.32
		c1.34-0.61,2.53-1.16,4.17-0.68c-0.69-0.85-1.44-1.41-2.06-1.88c-1.38-1.03-2.37-1.78-1.08-4.24c0.33-0.64,0.62-1.21,0.89-1.74
		c1.24-2.47,1.99-3.96,4.16-5.55c1.04-0.77,1.24-1.51,1.42-2.23c0.26-0.99,0.5-1.92,2.79-2.44c0.8-0.18,1.42-0.33,1.92-0.46
		c1.9-0.46,2.24-0.55,4.47-0.41c1.44,0.09,2.47-0.36,3.37-0.79c-0.86,0.11-1.5,0.22-2.07,0.31c-1.5,0.25-2.41,0.39-5.08,0.29
		c-4.04-0.16-7.53,2.11-8.87,4.42l-0.23,0.39c-1.16,2.03-2.25,3.94-4.64,2.88c-0.34-0.15-0.77-0.31-1.24-0.49
		c-2.65-0.99-7.09-2.64-7.92-7.6c-0.42-2.5-1.97-5.52-3.48-8.43c-1.89-3.67-3.68-7.13-3.1-9.35c0.96-3.67,0.14-19.44-2.67-25.93
		c-1.36-3.15-4.73-12.76-7.98-22.06c-3.29-9.4-6.69-19.11-7.81-21.53c-0.37-0.8-0.67-1.48-0.93-2.06c-1.31-2.97-1.45-3.28-3.53-3.28
		v-0.5c2.41,0,2.68,0.62,3.99,3.58c0.26,0.58,0.56,1.26,0.93,2.06c1.13,2.44,4.39,11.74,7.83,21.58c3.25,9.29,6.61,18.9,7.97,22.03
		c2.84,6.57,3.67,22.53,2.69,26.25c-0.53,2.04,1.21,5.42,3.06,9c1.52,2.95,3.1,6,3.53,8.58c0.78,4.67,4.88,6.2,7.6,7.21
		c0.49,0.18,0.91,0.34,1.27,0.5c1.88,0.84,2.71-0.41,4-2.68l0.23-0.4c1.37-2.37,4.88-4.84,9.32-4.67c2.61,0.1,3.5-0.04,4.98-0.28
		c0.92-0.15,2.06-0.34,3.96-0.53c0.16-0.03,0.33-0.05,0.5-0.05l0.02,0.5c-0.16,0.01-0.31,0.03-0.45,0.04
		c-0.47,0.09-0.94,0.32-1.47,0.57c-1,0.48-2.13,1.04-3.81,0.93c-2.15-0.13-2.44-0.06-4.32,0.4c-0.51,0.12-1.13,0.27-1.93,0.46
		c-1.99,0.45-2.17,1.14-2.41,2.08c-0.2,0.77-0.43,1.64-1.61,2.51c-2.07,1.52-2.76,2.89-4.01,5.37c-0.27,0.53-0.56,1.11-0.89,1.75
		c-1.09,2.08-0.41,2.59,0.94,3.6c0.8,0.6,1.8,1.36,2.66,2.67l0.47,0.72l-0.78-0.36c-1.87-0.85-3-0.34-4.55,0.38
		C282.36,390.57,280.71,391.33,278.1,391.33z"/>
</g>
<g>
	<path class="st0" d="M218.4,203.79"/>
</g>
<g>
	<path d="M206.39,315.29c-0.01-0.48-0.19-11.89,5.54-14.96c2.49-1.33,4.45-3.48,5.76-4.9c1.15-1.26,1.73-1.89,2.22-1.67
		c0.38,0.17,0.48,0.77,0.35,2.23c-0.38,4.13-1.53,7.93-2.37,10.69c-0.03,0.11-0.07,0.22-0.1,0.33c1.24-2.7,3.22-6.83,4.82-8.09
		l0.31,0.39c-1.66,1.31-3.84,6.09-5.01,8.66c-0.85,1.87-0.85,1.88-1.13,1.78c-0.25-0.09-0.19-0.34-0.07-0.8
		c0.19-0.71,0.43-1.5,0.71-2.41c0.84-2.75,1.98-6.51,2.35-10.59c0.13-1.49-0.02-1.7-0.06-1.73c0,0,0,0-0.01,0
		c-0.22,0-0.97,0.82-1.64,1.55c-1.32,1.44-3.33,3.63-5.89,5c-5.46,2.92-5.28,14.39-5.28,14.51L206.39,315.29z"/>
</g>
<g>
	<path d="M87.95,382.14c-0.6,0-1.03-0.29-1.27-0.84c-1.62-3.79,5.71-15.2,9.3-19.82l1.23-1.58l-0.81,1.84
		c-1.09,2.49-2.47,6.67-1.54,7.31c0.32,0.22,1.52,0.27,5.77-3.98c10.86-10.86,12.11-11.36,14.59-12.35l1.6-0.64l-1.18,1
		c-6.24,5.28-13.26,12.4-14.86,16.4c-1.35,3.37-9.45,12.63-12.82,12.67C87.96,382.14,87.96,382.14,87.95,382.14z M95.22,363.33
		c-3.88,5.38-9.38,14.74-8.08,17.77c0.16,0.37,0.42,0.55,0.82,0.53c2.87-0.03,10.97-8.89,12.36-12.36
		c1.53-3.81,7.82-10.34,13.77-15.53c-1.9,0.95-4.36,2.92-13.1,11.67c-4.48,4.48-5.8,4.45-6.41,4.04
		C93.47,368.69,94.42,365.48,95.22,363.33z"/>
</g>
<g>
	<path d="M70.04,430.28c-0.8,0-1.54-0.11-2.2-0.38c-1.7-0.69-2.47-2.26-2.29-4.69c0.75-10.31,3.82-21.85,5.69-25.58
		c1.79-3.58,9.98-15.87,10.06-15.99l0.42,0.27c-0.07,0.12-7.33,12.3-5.14,15.48c0.44,0.64,1.31,0.85,2.56,0.63
		c7.54-1.37,21.05-17.46,27.14-25.78c3.98-5.43,20.47-23.66,27.62-28.26l1.14-0.74l-0.81,1.09c-3.31,4.49-7.11,8.57-10.79,12.52
		c-5.07,5.45-9.86,10.6-12.1,15.62c-1.54,3.44-4.36,7.58-7.35,11.97c-4.38,6.43-8.91,13.08-9.11,17.35c1.81,3.17,2.01,6.9,0.47,8.7
		c-0.72,0.84-2.12,1.63-4.7,0.7c-0.71,1.82-0.9,2.9-1.06,3.76c-0.26,1.47-0.42,2.35-2.71,5.09c-1.47,1.76-5.06,4.21-8.73,5.94
		C76.14,428.93,72.8,430.28,70.04,430.28z M78.63,388.6c-2.54,3.9-5.88,9.13-6.94,11.25c-1.85,3.7-4.89,15.15-5.64,25.4
		c-0.16,2.19,0.51,3.6,1.98,4.19c4.72,1.91,15.83-4.54,18.48-7.72c2.2-2.64,2.34-3.43,2.6-4.86c0.17-0.92,0.38-2.08,1.18-4.09
		l0.09-0.23l0.23,0.09c1.94,0.76,3.45,0.6,4.37-0.47c1.42-1.66,1.18-5.18-0.56-8.18l-0.04-0.06l0-0.07
		c0.16-4.42,4.75-11.17,9.2-17.69c2.97-4.36,5.78-8.49,7.3-11.89c2.28-5.1,7.1-10.27,12.19-15.76c3.32-3.57,6.74-7.25,9.81-11.23
		c-7.63,5.67-22.47,22.13-26.21,27.24c-0.72,0.99-17.83,24.23-27.45,25.98c-1.46,0.27-2.49-0.01-3.06-0.83
		C74.75,397.62,76.73,392.51,78.63,388.6z"/>
</g>
<g>
	<path d="M52.98,466.32c-0.03,0-0.06,0-0.09,0c-0.92-0.07-1.58-1.27-2.49-2.93l-0.19-0.35c-0.14-0.25-0.26-0.46-0.36-0.64
		c-0.65-1.12-0.65-1.17-0.51-3.37c0.06-1.01,0.16-2.51,0.23-4.81c-2.64-0.34-4.39-1.53-5.22-3.54c-2.32-5.65,3.56-16.46,6.29-19.81
		c0.83-1.02,1.16-1.11,1.38-1.07l0,0c1.34,0.25,2.13,0.7,2.4,1.38c0.43,1.07-0.54,2.44-1.57,3.89c-0.17,0.23-0.33,0.47-0.5,0.71
		c-0.62,0.89-0.6,1.2-0.57,1.28c0.04,0.12,0.28,0.17,0.5,0.23c0.37,0.09,0.83,0.2,0.96,0.68c0.04,0.14,0.06,0.31,0.09,0.5
		c0.14,1,0.34,2.52,4.38,3.79l-0.11,0.49c-2.04-0.31-3.31-0.15-3.79,0.46c-0.64,0.82,0.06,2.51,0.74,4.14
		c0.46,1.1,0.93,2.24,1.03,3.19c0.34,3.31,0.85,7.67,1.12,9.52c0.27,1.91-0.73,3.35-2.28,5.34
		C53.91,466.01,53.45,466.32,52.98,466.32z M51.95,430.28c-1.02,0.26-7.92,10.68-7.62,17.75c0.15,3.41,2.01,5.33,5.53,5.71
		l0.23,0.02l-0.01,0.23c-0.08,2.44-0.17,4.02-0.24,5.06c-0.13,2.1-0.13,2.1,0.44,3.09c0.1,0.18,0.23,0.39,0.37,0.65l0.19,0.35
		c0.77,1.41,1.44,2.62,2.09,2.68c0.32,0.02,0.67-0.22,1.08-0.74c1.52-1.94,2.43-3.25,2.18-4.96c-0.27-1.85-0.78-6.22-1.12-9.54
		c-0.09-0.88-0.55-1.98-0.99-3.05c-0.77-1.85-1.49-3.59-0.67-4.64c0.43-0.55,1.22-0.81,2.44-0.81c-2.71-1.25-2.9-2.66-3.02-3.56
		c-0.02-0.16-0.04-0.31-0.07-0.43c-0.05-0.18-0.26-0.24-0.6-0.33c-0.33-0.08-0.71-0.18-0.85-0.54c-0.14-0.38,0.04-0.9,0.63-1.75
		c0.17-0.24,0.33-0.48,0.5-0.71c0.95-1.33,1.84-2.6,1.51-3.41C53.76,430.85,53.08,430.5,51.95,430.28z M51.96,430.28L51.96,430.28z
		 M51.93,430.27L51.93,430.27C51.93,430.27,51.93,430.27,51.93,430.27C51.93,430.27,51.93,430.27,51.93,430.27z"/>
</g>
<g>
	<path d="M107.58,309.34c-1.78,0-2.97-0.48-3.44-1.41c-0.52-1.05-0.03-2.48,1.33-3.83c2.48-2.48,15.87-17.93,16.01-18.09l0.09-0.1
		l0.13,0.01c0.05,0.01,5.1,0.53,9.53-3.46l1.07-0.96l-0.68,1.27c-3.08,5.72-5.58,9.13-7.41,11.62c-0.97,1.32-1.74,2.37-2.32,3.38
		c-1.83,3.17-6.72,10.64-12.54,11.45C108.71,309.3,108.12,309.34,107.58,309.34z M121.77,286.43c-1.15,1.32-13.56,15.63-15.95,18.02
		c-1.18,1.18-1.65,2.43-1.23,3.26c0.49,0.99,2.2,1.36,4.69,1.01c5.76-0.81,10.78-8.78,12.18-11.21c0.6-1.04,1.37-2.09,2.35-3.43
		c1.69-2.31,3.97-5.41,6.75-10.42C126.6,286.63,122.57,286.49,121.77,286.43z"/>
</g>
<g>
	<path d="M108.03,336.68c-0.04,0-0.07,0-0.11,0c-0.36-0.02-0.65-0.19-0.82-0.47c-0.7-1.14,0.47-4.01,0.61-4.34l0.02-0.03
		c1.69-2.76,4.97-8.28,5.23-9.42c0.29-1.23,1.11-3.51,2.4-4.2c0.44-0.24,0.9-0.27,1.36-0.1c0.44,0.16,0.9,0.25,1.3,0.34
		c0.75,0.15,1.39,0.28,1.61,0.79c0.19,0.44,0,1.05-0.62,1.99c-2.09,3.2-2.42,5.54-2.48,6.18l-0.02,0.33
		c-0.08,1.21-0.14,2.01-2.67,3.86c-1.11,0.81-1.97,1.85-2.74,2.76C110.06,335.6,109.16,336.68,108.03,336.68z M108.16,332.08
		c-0.35,0.83-1.12,3.09-0.64,3.86c0.09,0.15,0.23,0.22,0.43,0.24c0.92,0.05,1.74-0.91,2.77-2.14c0.78-0.94,1.67-2,2.83-2.85
		c2.35-1.71,2.4-2.38,2.47-3.49l0.02-0.34c0.15-1.79,1.11-4.18,2.56-6.41c0.49-0.75,0.68-1.26,0.57-1.52
		c-0.11-0.27-0.64-0.37-1.24-0.49c-0.43-0.08-0.91-0.18-1.38-0.36c-0.32-0.12-0.64-0.1-0.95,0.07c-1.05,0.56-1.86,2.62-2.15,3.87
		C113.1,324.01,108.47,331.57,108.16,332.08z"/>
</g>
<g>
	<path d="M176.53,230.07l-2.47-1.52c-1.54-0.95-1.78-2.18-2.04-3.48c-0.14-0.71-0.28-1.44-0.63-2.24c-0.92-2.1,0.47-3.34,2.57-5.22
		c0.44-0.4,0.93-0.83,1.43-1.3c0.71-0.67,1.35-0.9,1.92-0.68c1.48,0.57,1.76,4.12,1.91,6.03l0.02,0.31c0.18,2.1-2.49,7.62-2.6,7.85
		L176.53,230.07z M176.89,216.05c-0.32,0-0.71,0.21-1.15,0.62c-0.51,0.48-1,0.91-1.44,1.31c-2.08,1.85-3.22,2.87-2.45,4.64
		c0.37,0.85,0.53,1.64,0.67,2.35c0.25,1.29,0.45,2.31,1.81,3.15l1.99,1.23c0.52-1.11,2.58-5.62,2.43-7.35l-0.02-0.31
		c-0.12-1.54-0.41-5.15-1.6-5.6C177.06,216.07,176.98,216.05,176.89,216.05z"/>
</g>
<g>
	<path d="M197.65,212.89c-0.51,0-0.88-0.12-1.1-0.4c-0.37-0.49-0.19-1.31,0.61-2.68c1.69-2.9,1.9-4.43,2.05-5.55
		c0.1-0.75,0.19-1.39,0.67-2.15c1.11-1.74,2.9-12.67,2.92-12.78l0.5,0.06c-0.27,2.93-0.6,10.82,1.09,12.06
		c0.25,0.18,0.53,0.2,0.88,0.05c2.94-1.26,4.77-3.54,6.7-5.95c0.4-0.5,0.82-1.02,1.24-1.53l0.61-0.73l-0.17,0.93
		c-0.33,1.81-0.51,3.05-0.64,3.95c-0.32,2.15-0.41,2.8-1.6,5.7c-0.36,0.88-0.62,1.68-0.85,2.39c-0.85,2.61-1.41,4.34-5.41,4.97
		c-1.29,0.2-2.67,0.57-3.88,0.9C199.75,212.55,198.51,212.89,197.65,212.89z M202.57,193.45c-0.63,3.38-1.57,7.82-2.28,8.93
		c-0.42,0.66-0.49,1.2-0.59,1.94c-0.15,1.16-0.36,2.74-2.11,5.73c-0.85,1.46-0.77,1.96-0.64,2.12c0.38,0.5,2.32-0.01,4.18-0.51
		c1.22-0.33,2.61-0.7,3.93-0.91c3.69-0.58,4.16-2.02,5.01-4.63c0.23-0.72,0.5-1.53,0.86-2.42c1.17-2.85,1.25-3.43,1.57-5.59
		c0.11-0.74,0.25-1.71,0.48-3.03c-0.21,0.26-0.42,0.53-0.63,0.79c-1.98,2.46-3.84,4.79-6.89,6.09c-0.5,0.21-0.98,0.18-1.37-0.1
		C202.72,200.86,202.51,196.7,202.57,193.45z"/>
</g>
<g>
	<path d="M219.89,179.63c-0.31,0-0.64-0.21-1.74-18.82l-0.08-1.3l0.55,1.18c0.02,0.04,2.12,4.46,4.18,4.14
		c1.19-0.18,2.84-2.06,3.93-9.99l0.5,0.03c0,9.53-2.76,14.44-4.78,18.03c-1.18,2.1-2.11,3.75-2.19,5.67
		c-0.03,0.75-0.06,1.05-0.36,1.06C219.9,179.63,219.89,179.63,219.89,179.63z M218.71,161.92c0.33,5.47,0.81,12.55,1.14,15.7
		c0.29-1.65,1.13-3.15,2.16-4.97c1.69-3.01,3.92-6.96,4.55-13.84c-0.89,4.14-2.11,6.28-3.68,6.51
		C221.13,165.59,219.52,163.31,218.71,161.92z"/>
</g>
<g>
	<path d="M208.8,230.5c-1.37,0-2.7-0.17-3.88-0.55c-0.95-0.31-1.44-0.76-1.46-1.33c-0.05-2.04,6.82-4.69,7.6-4.98l0.07-0.02
		c3.68-0.2,6.23,0.34,7.17,1.52c0.39,0.49,0.5,1.06,0.32,1.71c-0.22,0.78-1.17,1.43-1.93,1.83
		C214.73,229.75,211.69,230.5,208.8,230.5z M211.21,224.12c-2.83,1.07-7.27,3.23-7.24,4.49c0.01,0.42,0.61,0.7,1.11,0.86
		c3.48,1.14,8.63,0.25,11.39-1.22c0.95-0.51,1.55-1.05,1.68-1.53c0.14-0.49,0.06-0.9-0.23-1.26
		C217.12,224.45,214.61,223.95,211.21,224.12z"/>
</g>
<g>
	<path d="M150.71,290.02c-0.87,0-1.68-0.64-2.47-1.95c-2.13-3.52,6.52-13.47,6.89-13.89l0.07-0.08l0.11,0
		c2.44-0.12,3.75,0.19,4.24,1.01c0.67,1.12-0.42,2.91-1.8,5.18c-0.72,1.19-1.54,2.53-2.2,3.95c-1.85,3.92-3.31,5.71-4.74,5.78
		C150.77,290.02,150.74,290.02,150.71,290.02z M155.43,274.59c-0.82,0.96-8.62,10.17-6.77,13.22c0.72,1.19,1.42,1.75,2.11,1.71
		c1.19-0.06,2.61-1.86,4.32-5.49c0.68-1.44,1.5-2.8,2.23-3.99c1.24-2.04,2.31-3.8,1.8-4.67
		C158.75,274.75,157.55,274.5,155.43,274.59z"/>
</g>
<g>
	<path d="M175.17,263.23c-0.67,0-1.46-0.07-2.39-0.22c-0.79-0.13-1.26-0.46-1.39-0.99c-0.58-2.35,6.64-7.85,7.47-8.47l0.11-0.05
		l4-0.7c2.65-0.46,4.56-2.43,7.21-5.15c1.26-1.29,2.69-2.76,4.44-4.32c1.61-1.43,2.13-1.54,2.41-1.25c0.97,0.97-4.67,8.6-6.18,10.27
		c-1.75,1.94-3.97,3.37-5.92,4.62c-1.54,0.99-3,1.92-4.04,2.98c-0.22,0.22-0.42,0.43-0.62,0.64
		C178.75,262.2,177.76,263.23,175.17,263.23z M179.11,253.99c-2.2,1.66-7.66,6.21-7.23,7.92c0.08,0.31,0.41,0.52,0.98,0.61
		c4.24,0.67,5.12-0.25,7.06-2.26c0.2-0.2,0.4-0.42,0.62-0.64c1.08-1.1,2.56-2.05,4.13-3.05c2.02-1.3,4.12-2.64,5.82-4.53
		c2.45-2.72,6.27-8.63,6.19-9.56c-0.13,0.03-0.56,0.21-1.72,1.24c-1.74,1.55-3.16,3.01-4.42,4.3c-2.72,2.79-4.68,4.8-7.49,5.29
		L179.11,253.99z"/>
</g>
<g>
	<path d="M173.15,411.59c-0.48,0-0.91-0.18-1.26-0.54c-1.75-1.78-1.06-7.58-1.03-7.82l0.05-0.4l6.66,4.35l-0.03,0.16
		c-0.01,0.04-0.76,3.87-4.17,4.23C173.29,411.58,173.22,411.59,173.15,411.59z M171.31,403.69c-0.12,1.34-0.4,5.65,0.93,7.01
		c0.29,0.3,0.64,0.42,1.07,0.38c2.69-0.28,3.52-2.97,3.69-3.67L171.31,403.69z"/>
</g>
<g>
	<path d="M173.12,420.73c-0.65,0-0.85-0.4-1.09-0.99c-0.08-0.19-0.16-0.4-0.29-0.63c-0.65-1.23,1.22-2.82,1.44-3l0.08-0.04
		c0.05-0.02,1.17-0.39,2.35,1.35c0.43,0.64,0.56,1.22,0.37,1.73c-0.23,0.64-0.94,1.13-2.11,1.46
		C173.56,420.69,173.32,420.73,173.12,420.73z M173.46,416.53c-0.52,0.44-1.65,1.62-1.27,2.34c0.13,0.25,0.22,0.48,0.31,0.68
		c0.27,0.67,0.33,0.83,1.24,0.57c0.99-0.28,1.6-0.67,1.78-1.15c0.13-0.35,0.02-0.78-0.31-1.28
		C174.35,416.46,173.63,416.5,173.46,416.53z"/>
</g>
<g>
	<path d="M169.74,303.17c-0.16,0-0.3-0.04-0.43-0.11c-0.87-0.5-0.65-2.54-0.38-5.13c0.07-0.68,0.15-1.39,0.21-2.09
		c0.35-4.33,3.29-5.55,3.42-5.6l0.32-0.13l0.03,0.34c0.01,0.18,0.34,4.52,0,6.29c-0.09,0.49-0.02,0.97,0.07,1.49
		c0.2,1.24,0.43,2.64-1.79,4.29C170.59,302.96,170.12,303.17,169.74,303.17z M172.43,290.87c-0.74,0.43-2.53,1.78-2.79,5.02
		c-0.06,0.7-0.13,1.42-0.21,2.1c-0.23,2.11-0.46,4.3,0.13,4.64c0.23,0.13,0.7-0.05,1.31-0.5c1.98-1.47,1.79-2.6,1.6-3.81
		c-0.09-0.54-0.18-1.09-0.06-1.66C172.68,295.24,172.5,291.98,172.43,290.87z"/>
</g>
<g>
	<path d="M175.8,285.31c-0.21,0-0.43-0.03-0.68-0.08c-0.5-0.11-0.82-0.34-0.97-0.69c-0.34-0.81,0.38-1.99,1.22-3.37
		c0.43-0.71,0.88-1.44,1.17-2.12c0.2-0.47,0.37-0.94,0.53-1.39c0.65-1.84,1.26-3.57,3.82-3.59l0,0c0.01,0,0.02,0,0.03,0
		c1,0,1.63,0.32,1.89,0.94c0.86,2.07-3.04,6.63-3.62,7.21c-0.33,0.33-0.6,0.76-0.87,1.18C177.75,284.3,177.11,285.31,175.8,285.31z
		 M180.89,274.57c-2.21,0.01-2.71,1.44-3.35,3.26c-0.16,0.46-0.33,0.94-0.54,1.42c-0.31,0.71-0.76,1.46-1.2,2.18
		c-0.7,1.15-1.43,2.34-1.18,2.91c0.08,0.19,0.28,0.32,0.62,0.4c1.43,0.32,2-0.57,2.66-1.61c0.28-0.44,0.57-0.9,0.94-1.27
		c1.04-1.02,4.16-5.1,3.51-6.66C182.17,274.78,181.69,274.55,180.89,274.57L180.89,274.57z"/>
</g>
<g>
	<path d="M43.01,85.2c-1.15,0-2.18-0.36-3.08-1.07c-1.69-1.33-2.79-3.86-3.08-7.12c-0.47-5.18,9.05-7.93,9.45-8.05l0.05-0.01
		l0.05,0.01c4.7,0.53,4.65,2.97,4.59,6.66c-0.01,0.46-0.02,0.95-0.02,1.46c0,4.33-2.71,7.41-7.08,8.06
		C43.59,85.18,43.3,85.2,43.01,85.2z M46.39,69.47c-0.72,0.21-9.46,2.91-9.04,7.51c0.28,3.12,1.31,5.53,2.89,6.77
		c1.01,0.8,2.21,1.1,3.57,0.9c4.1-0.6,6.65-3.5,6.65-7.56c0-0.51,0.01-1,0.02-1.47C50.55,71.97,50.58,69.96,46.39,69.47z"/>
</g>
<g>
	<path d="M56.87,188.18c-2.88,0-5.69-0.6-7.09-2.35c-1.46-1.82-1.21-4.56,0.75-8.16c4.16-7.66,5.6-14.62,3.95-19.08
		c-0.73-1.96-2.01-3.3-3.82-3.99c-1.01-0.38-2.02-0.74-3.01-1.08c-4.91-1.71-9.55-3.33-10.81-8.13c-0.88-3.34-2.71-5.23-4.05-6.61
		c-0.89-0.92-1.54-1.59-1.43-2.3c0.06-0.38,0.03-0.7,0-1c-0.08-0.86-0.15-1.61,1.7-2.94c0.38-0.27,0.58-0.53,0.59-0.76
		c0.03-0.41-0.46-0.86-0.98-1.34c-0.78-0.72-1.66-1.54-1.34-2.68c0.21-0.77,0.15-1.46,0.09-2.13c-0.11-1.15-0.22-2.33,1.15-3.7
		c2-2,3.43-7.6,3.16-8.18l0.45-0.22c0.44,0.88-1.19,6.7-3.25,8.76c-1.21,1.21-1.11,2.18-1.01,3.3c0.07,0.71,0.14,1.45-0.1,2.31
		c-0.23,0.84,0.5,1.52,1.2,2.18c0.61,0.56,1.18,1.1,1.14,1.74c-0.03,0.4-0.29,0.77-0.8,1.14c-1.62,1.16-1.57,1.72-1.5,2.49
		c0.03,0.32,0.07,0.69,0,1.13c-0.07,0.46,0.5,1.06,1.3,1.88c1.3,1.34,3.27,3.37,4.18,6.83c1.19,4.54,5.5,6.05,10.49,7.78
		c0.99,0.34,2.01,0.7,3.02,1.09c1.95,0.74,3.33,2.19,4.11,4.29c1.7,4.6,0.25,11.71-3.98,19.5c-1.85,3.4-2.12,5.97-0.8,7.61
		c2.25,2.81,8.95,2.45,12.98,1.3c1.89-0.54,3.47-2.23,4.47-4.75c1.37-3.47,1.38-7.8,0.02-10.07c-2.41-4.01-3.89-9.98-2.07-13.63
		c1.33-2.65,1.8-6.25,2.39-10.8c0.2-1.54,0.41-3.14,0.67-4.83c0.41-2.64-0.15-4.88-1.62-6.47c-1.71-1.85-4.14-2.39-5.84-2.26
		c-0.84,0.06-1.79,0.18-2.79,0.3c-3.34,0.42-7.13,0.88-9.96-0.32c-3.77-1.61-3.2-4.67-2.31-8.26c-0.85,0.39-1.51,0.41-2.01,0.09
		c-1.32-0.87-0.99-4.04-0.6-7.72c0.06-0.54,0.11-1.08,0.17-1.62c0.38-3.93,1.71-6.42,2.87-8.6c0.46-0.86,0.9-1.68,1.26-2.54
		c1.03-2.46,0.9-6.1-5.55-9.47c-1.15-0.6-2.23-0.66-3.2-0.19c-3.16,1.55-4.4,8.18-4.42,8.25l-0.49-0.09
		c0.05-0.28,1.3-6.95,4.69-8.61c1.13-0.55,2.35-0.49,3.65,0.19c7.14,3.73,6.69,7.93,5.78,10.1c-0.37,0.88-0.81,1.71-1.28,2.58
		c-1.15,2.15-2.45,4.58-2.82,8.42c-0.05,0.54-0.11,1.09-0.17,1.63c-0.34,3.22-0.69,6.54,0.38,7.25c0.41,0.27,1.08,0.15,1.98-0.36
		l0.51-0.28l-0.14,0.56c-1.04,4.15-1.5,6.76,1.89,8.21c2.71,1.15,6.43,0.69,9.71,0.29c1.01-0.12,1.96-0.24,2.82-0.3
		c1.82-0.13,4.42,0.44,6.25,2.42c1.1,1.19,2.29,3.35,1.74,6.88c-0.26,1.69-0.47,3.28-0.67,4.82c-0.6,4.6-1.08,8.23-2.44,10.96
		c-1.74,3.48-0.29,9.25,2.05,13.15c1.43,2.39,1.44,6.91,0.02,10.51c-1.06,2.67-2.76,4.47-4.8,5.05
		C61.56,187.79,59.19,188.18,56.87,188.18z"/>
</g>
<g>
	<path d="M117.28,154.93l-0.48-0.13c3.77-14.11,5.19-16.13,8.97-21.51c0.88-1.26,1.88-2.68,3.08-4.49c6-9.08,25.4-12.26,31.78-13.3
		c0.46-0.07,0.85-0.14,1.18-0.2c1.21-0.21,2.72-0.17,4.47-0.12c5.51,0.14,13.83,0.36,23.57-7.04c9.44-7.17,11.98-17.42,14.22-26.46
		c0.79-3.18,1.53-6.18,2.52-8.79c3.04-8.01,9.07-13.83,17.94-17.31c1.65-0.65,4.32-1.61,7.42-2.74c8.46-3.06,20.06-7.26,22.8-9.25
		c3.67-2.67,16.72-20.48,20.17-27.04c2.24-4.26,8.11-8.04,12.05-10.2c-4.83,1.94-12.67,5.68-15.39,10.44
		c-2.63,4.61-9.53,11.53-15.08,17.09c-3.28,3.29-6.11,6.13-7.6,8c-2.47,3.09-9.71,4.92-17.36,6.86c-5.26,1.33-10.71,2.71-14.65,4.54
		c-9.33,4.33-14.17,13.29-21.5,31.74c-7.45,18.76-18.98,21.64-26.61,23.55c-2.58,0.65-4.74,1-7.01,1.37
		c-4.99,0.81-11.2,1.82-25.58,6.56c-20.55,6.77-24.51,35.69-24.55,35.98l-0.5-0.06c0.04-0.29,4.04-29.53,24.89-36.39
		c14.42-4.75,20.65-5.76,25.66-6.58c2.27-0.37,4.41-0.72,6.97-1.36c7.53-1.88,18.9-4.73,26.26-23.25
		c7.38-18.58,12.28-27.61,21.76-32.01c3.99-1.85,9.46-3.24,14.74-4.57c7.57-1.92,14.73-3.73,17.09-6.69
		c1.51-1.89,4.35-4.74,7.64-8.04c5.52-5.54,12.4-12.44,15-16.99c4.12-7.21,19.03-11.93,19.66-12.13l0.18,0.47
		c-0.12,0.05-12.27,5.53-15.62,11.9c-3.56,6.77-16.51,24.44-20.32,27.21c-2.8,2.03-14.43,6.24-22.92,9.32
		c-3.09,1.12-5.77,2.09-7.41,2.73c-8.73,3.42-14.67,9.15-17.66,17.02c-0.98,2.59-1.72,5.57-2.51,8.74
		c-2.26,9.12-4.82,19.46-14.4,26.74c-9.88,7.51-18.31,7.29-23.89,7.14c-1.73-0.04-3.21-0.08-4.38,0.12
		c-0.33,0.06-0.72,0.12-1.18,0.2c-6.32,1.04-25.56,4.19-31.44,13.08c-1.2,1.81-2.2,3.24-3.09,4.5
		C122.43,138.91,121.03,140.91,117.28,154.93z"/>
</g>
<g>
	<path d="M141.56,108.16c-0.2-0.25-4.85-6.28-5.88-11.26c-0.41-1.96-1.03-3.53-1.59-4.92c-0.85-2.14-1.59-3.99-1.16-6.33
		c0.12-0.68,0.2-1.52,0.29-2.42c0.27-2.9,0.61-6.5,2.71-8.08c0.98-0.74,2.26-0.97,3.82-0.68c6.69,1.23,7.41,5.5,7.41,7.28
		c0,0.6,0.18,2.04,0.38,3.72c0.39,3.14,0.87,7.05,0.64,8.85c-0.35,2.78,0.23,10.39,2.5,12.49l-0.34,0.37
		c-2.48-2.31-2.99-10.2-2.65-12.92c0.22-1.73-0.28-5.77-0.64-8.72c-0.22-1.76-0.39-3.15-0.39-3.78c0-1.65-0.68-5.63-7.01-6.79
		c-1.43-0.26-2.55-0.07-3.42,0.59c-1.92,1.45-2.25,4.93-2.51,7.73c-0.09,0.91-0.17,1.76-0.29,2.46c-0.4,2.2,0.28,3.9,1.13,6.06
		c0.56,1.41,1.2,3.01,1.61,5.01c1.01,4.86,5.74,10.99,5.79,11.06L141.56,108.16z"/>
</g>
<g>
	<path d="M137.07,109.33c-0.38-0.7-9.3-17.28-9.47-22.77c-0.13-4.12,0.89-7.69,1.56-10.05c0.23-0.79,0.42-1.48,0.51-1.97
		c0.34-1.9,4.28-7.99,7.63-7.99c2.48,0,10.27,1.46,13.44,7.92c2.92,5.96,4.67,10.64,4.32,15.52c-0.05,0.73-0.11,1.46-0.17,2.18
		c-0.32,4.02-0.62,7.83,0.2,10.25l-0.47,0.16c-0.85-2.52-0.55-6.38-0.22-10.45c0.06-0.72,0.12-1.45,0.17-2.18
		c0.34-4.77-1.38-9.38-4.27-15.27c-3.06-6.24-10.59-7.64-12.99-7.64c-2.85,0-6.79,5.62-7.14,7.57c-0.09,0.51-0.28,1.18-0.52,2.02
		c-0.66,2.33-1.67,5.86-1.54,9.89c0.17,5.37,9.32,22.38,9.41,22.55L137.07,109.33z"/>
</g>
<g>
	<path d="M153.59,196.67c-0.04-0.11-1.01-2.68-1.52-8.65c-0.25-2.87-1.17-6.11-2.05-9.24c-0.96-3.39-1.96-6.9-2.12-9.99
		c-0.29-5.63,2.07-13.98,4.19-19.42c1.74-4.49,1.79-8.46,1.49-15.86c-0.29-7.14,0-14.11,0-14.18l0.5,0.02c0,0.07-0.29,7.02,0,14.14
		c0.3,7.47,0.25,11.49-1.53,16.07c-2.1,5.39-4.44,13.66-4.15,19.21c0.16,3.04,1.15,6.52,2.1,9.88c0.9,3.15,1.82,6.42,2.07,9.34
		c0.5,5.89,1.48,8.49,1.49,8.51L153.59,196.67z"/>
</g>
<g>
	<path d="M161.15,201.04c-0.07-0.43-0.13-1.15-0.22-2.07c-0.26-2.83-0.69-7.56-1.72-9.48c-0.84-1.58-1.47-5.33-2.19-9.67
		c-0.48-2.9-0.99-5.9-1.61-8.58c-1.3-5.61,0.04-11.46,1.21-16.61c0.24-1.05,0.47-2.07,0.68-3.06c0.35-1.7,0.72-3.26,1.08-4.77
		c0.88-3.68,1.79-7.49,2.52-13.92c1.01-8.91-1.5-14.4-1.52-14.46l0.45-0.21c0.03,0.06,2.59,5.66,1.57,14.73
		c-0.73,6.46-1.65,10.29-2.53,13.98c-0.36,1.5-0.73,3.05-1.08,4.75c-0.2,0.99-0.44,2.02-0.68,3.07c-1.16,5.1-2.48,10.89-1.21,16.39
		c0.62,2.7,1.12,5.71,1.61,8.61c0.69,4.12,1.34,8.02,2.14,9.52c1.07,2.01,1.49,6.62,1.77,9.67c0.08,0.91,0.15,1.63,0.21,2.04
		L161.15,201.04z"/>
</g>
<g>
	<path d="M243.84,528.06c-4.22,0-8.86-0.89-12.07-3.52c-3.16-2.58-4.59-6.46-4.27-11.52c0.55-8.71,3.46-11.92,5.38-14.04
		c1.74-1.92,2.7-2.97,1.08-6.44c-0.73-1.55-1.67-2.49-2.8-2.78c-2.28-0.58-5.04,1.44-7.05,2.92c-1.29,0.95-2.23,1.63-2.83,1.54
		c-0.18-0.03-0.44-0.05-0.76-0.07c-3.02-0.24-11.03-0.88-14.59-9.35c-1.79-4.26-3.76-5.47-5.34-6.44c-1.82-1.12-3.13-1.93-2.7-6.59
		c0.74-8.07,6.17-15.11,16.6-21.52c3.19-1.96,7.69-3.63,12.05-5.24c6.9-2.56,13.41-4.97,14.01-8.15c0.54-2.83,0.03-5.56-1.39-7.51
		c-1.06-1.45-2.56-2.37-4.24-2.58c-1.39-0.17-2.53-0.68-3.74-1.22c-2.44-1.09-4.97-2.21-10.07-0.85
		c-7.2,1.92-34.16,16.65-43.64,28.24c-8.82,10.78-26.91,31.31-31.7,35.31c-1.54,1.29-4.82,4.3-8.62,7.8
		c-7.9,7.28-17.74,16.33-21.54,18.74c-5.83,3.71-23.88,11.2-30.46,2.51c-6.5-8.58-1.31-13.67-1.26-13.72l0.34,0.36
		c-0.2,0.19-4.9,4.85,1.31,13.06c6.29,8.3,24.29,0.86,29.79-2.63c3.76-2.39,13.99-11.81,21.47-18.69c3.8-3.5,7.08-6.52,8.63-7.81
		c4.45-3.71,21.88-23.32,31.64-35.24c9.03-11.03,35.65-26.21,43.9-28.41c5.27-1.41,8-0.19,10.4,0.88c1.17,0.52,2.28,1.01,3.6,1.18
		c1.81,0.23,3.44,1.21,4.58,2.78c1.5,2.06,2.04,4.94,1.47,7.9c-0.66,3.46-7.3,5.92-14.33,8.53c-4.33,1.61-8.81,3.27-11.96,5.2
		c-10.29,6.32-15.64,13.24-16.36,21.14c-0.4,4.35,0.68,5.02,2.47,6.12c1.55,0.96,3.68,2.27,5.54,6.67
		c3.44,8.19,11.24,8.81,14.17,9.04c0.33,0.03,0.6,0.05,0.79,0.07c0.4,0.06,1.41-0.68,2.46-1.45c2.1-1.54,4.96-3.65,7.47-3
		c1.29,0.33,2.34,1.36,3.13,3.05c1.76,3.77,0.6,5.05-1.16,6.99c-1.99,2.19-4.71,5.19-5.25,13.73c-0.31,4.89,1.06,8.63,4.09,11.1
		c5.13,4.19,14.03,3.82,18.77,2.54c2.95-0.79,7.16-4.06,11.85-9.2c3.98-4.35,7.76-9.49,9.62-13.08
		c2.53-4.89,10.81-11.39,17.45-16.62c2.86-2.25,5.32-4.19,6.8-5.59c2.85-2.7,6.85-3.78,10.72-4.81c2.82-0.76,5.74-1.54,8.12-2.95
		c4.12-2.44,4.88-8.76,5.56-14.33c0.22-1.87,0.44-3.63,0.76-5.07c0.58-2.55-0.25-5.79-2.2-8.68c-2.61-3.86-6.8-6.5-11.5-7.24
		c-9.91-1.57-25.93,9.72-28.07,13.52c-2.34,4.16-17.43,15.58-26.41,18.4c-8.24,2.59-12.73,5.99-16.68,8.98l-1.01,0.76
		c-4.02,3.02-13.76,3.52-20.83,1.07c-6.08-2.11-4.98-6.31-3.58-11.63c0.2-0.75,0.4-1.52,0.59-2.31
		c1.52-6.35,11.09-12.63,17.42-16.79l0.54-0.36c1.79-1.18,3.69-2.23,5.7-3.34c4.95-2.74,10.07-5.57,13.72-10.5
		c4.13-5.58-0.62-10.3-3.17-12.83c-0.54-0.54-0.97-0.97-1.21-1.3c-0.51-0.71-2.8-2.93-7.26-4.67c-3.67-1.43-9.81-2.87-18.25-1.61
		c-13.42,2-33.77,18.64-43.55,26.64c-1.74,1.42-3.11,2.54-3.99,3.21c-5.61,4.23-38.53,39.95-43.97,46.48
		c-4.87,5.85-18.88,18.1-31.08,18.63c-3.21,0.14-5.36-0.65-6.39-2.35c-2.13-3.52,1.38-9.61,1.53-9.87l0.43,0.25
		c-0.04,0.06-3.51,6.09-1.53,9.36c0.92,1.53,2.92,2.25,5.94,2.11c12.03-0.52,25.89-12.66,30.72-18.45
		c5.44-6.53,38.43-42.31,44.05-46.56c0.87-0.66,2.24-1.78,3.97-3.2c9.81-8.03,30.23-24.74,43.79-26.75
		c16.03-2.38,24.58,4.51,25.99,6.48c0.21,0.29,0.63,0.71,1.16,1.23c2.47,2.45,7.61,7.56,3.22,13.48
		c-3.71,5.01-8.88,7.87-13.88,10.64c-2,1.11-3.89,2.16-5.67,3.32l-0.54,0.36c-6.26,4.11-15.73,10.33-17.21,16.49
		c-0.19,0.8-0.4,1.57-0.59,2.32c-1.38,5.27-2.38,9.07,3.26,11.03c6.94,2.4,16.46,1.94,20.37-0.99l1.01-0.76
		c3.99-3.02,8.51-6.44,16.83-9.06c8.89-2.79,23.81-14.07,26.12-18.17c2.5-4.45,18.96-15.29,28.58-13.77
		c4.83,0.76,9.14,3.48,11.83,7.45c2.03,3,2.89,6.4,2.28,9.07c-0.32,1.42-0.53,3.17-0.76,5.02c-0.65,5.41-1.46,12.14-5.8,14.71
		c-2.44,1.44-5.39,2.23-8.24,3c-3.81,1.02-7.75,2.08-10.51,4.69c-1.5,1.42-3.97,3.36-6.84,5.62c-6.61,5.2-14.83,11.67-17.32,16.46
		c-3.53,6.8-14.88,20.67-21.79,22.53C249.1,527.69,246.56,528.06,243.84,528.06z"/>
</g>
<g>
	<path d="M243.21,517.48c-1.88,0-3.64-0.36-4.95-1.33c-1.83-1.36-2.5-3.72-2-7.01c1.62-10.67,3.7-12.68,4.17-13.01
		c0.31-0.64,2.6-5.25,5.24-6.13c0.71-0.24,1.4-0.18,2.03,0.16l0.08,0.04c3.59,1.93,14.52,7.82,12.91,12.11
		c-0.28,0.75-0.55,1.58-0.84,2.46c-1.26,3.82-2.82,8.57-6.49,10.3C251.57,515.9,247.14,517.48,243.21,517.48z M240.74,496.52
		c-0.07,0.04-2.27,1.42-3.98,12.69c-0.47,3.09,0.14,5.29,1.81,6.53c3.84,2.87,12.02,0.07,14.58-1.13c3.47-1.63,4.94-6.08,6.23-10
		c0.29-0.88,0.56-1.71,0.85-2.47c0.97-2.58-3.3-6.45-12.68-11.5l-0.08-0.04c-0.51-0.28-1.05-0.32-1.64-0.12
		c-2.58,0.85-4.95,5.88-4.97,5.93l-0.04,0.08L240.74,496.52z"/>
</g>
<g>
	<path d="M269.94,489.1c-5.13,0-10.99-0.9-13.47-2.88c-0.44-0.16-3.87-1.54-4.22-4.18c-0.25-1.89,1.17-3.92,4.2-6.03
		c6.62-4.6,9.16-4.42,11.19-4.28c0.85,0.06,1.59,0.11,2.53-0.17c3.27-0.97,10.7-5.33,11.94-8.32c1.54-3.7,4.71-8.67,14.38-9.17
		c6.47-0.33,11.59,1.25,13.03,4.03c0.6,1.16,0.44,2.44-0.47,3.59l-0.12,0.16c-2.88,3.66-8.23,10.48-12.88,11.77
		c-5.06,1.41-8.21,3.52-9.36,6.29c-1.33,3.19-4.73,6.3-8.88,8.12C276.21,488.73,273.22,489.1,269.94,489.1z M266.45,472.18
		c-1.87,0-4.4,0.55-9.72,4.24c-2.87,1.99-4.21,3.86-3.99,5.55c0.32,2.46,3.9,3.78,3.93,3.79l0.07,0.04
		c3.84,3.11,16.95,3.48,20.86,1.77c4.04-1.77,7.34-4.77,8.62-7.85c1.22-2.92,4.48-5.13,9.69-6.58c4.49-1.25,9.78-7.98,12.62-11.6
		l0.12-0.16c0.79-1,0.93-2.06,0.41-3.05c-1.11-2.13-5.42-4.12-12.56-3.76c-10.47,0.54-13,6.58-13.94,8.86
		c-1.34,3.22-8.96,7.62-12.26,8.6c-1.03,0.3-1.85,0.25-2.71,0.19C267.24,472.2,266.86,472.18,266.45,472.18z"/>
</g>
<g>
	<path d="M229.92,592.83c-0.01-0.06-1.37-6.01,0-16.91c0.86-6.92,0.24-9.66-0.71-13.81c-0.56-2.43-1.19-5.19-1.69-9.48
		c-1.41-12-18.18-16.91-18.35-16.95c-1.45-0.36-9.14-5.61-8.77-7.91c0.12-0.75,0.81-2.8,1.76-5.65c1.82-5.44,4.31-12.88,4.76-16.93
		c0.25-2.28-0.49-4.46-2.15-6.32c-2.69-3.01-7.32-4.74-12.7-4.74c-8.28,0-10.13,3.31-13.48,9.31c-0.34,0.6-0.69,1.24-1.07,1.89
		c-2.7,4.72,0.03,10.03,2.67,15.17c1.31,2.55,2.55,4.97,3.09,7.23c1.15,4.86-5.04,7.42-12.87,10.67c-3.58,1.48-7.28,3.01-10.77,4.96
		c-12.66,7.05-12.47,20.93-11.23,28.58c1.74,10.73,0.02,20.75,0,20.85l-0.49-0.09c0.02-0.1,1.72-10.04,0-20.69
		c-1.26-7.78-1.44-21.9,11.48-29.1c3.51-1.96,7.39-3.56,10.82-4.98c7.61-3.15,13.63-5.64,12.58-10.09
		c-0.52-2.21-1.75-4.59-3.04-7.12c-2.7-5.26-5.49-10.7-2.66-15.65c0.37-0.66,0.73-1.29,1.06-1.89c3.33-5.97,5.34-9.57,13.92-9.57
		c5.52,0,10.29,1.79,13.08,4.9c1.76,1.97,2.55,4.28,2.28,6.7c-0.46,4.1-2.96,11.57-4.78,17.03c-0.91,2.72-1.63,4.87-1.74,5.57
		c-0.3,1.84,6.95,6.98,8.4,7.34c0.17,0.04,17.28,5.06,18.73,17.38c0.5,4.26,1.13,7,1.68,9.42c0.93,4.05,1.6,6.98,0.72,13.98
		c-1.35,10.8-0.02,16.68,0,16.73L229.92,592.83z"/>
</g>
<g>
	<path d="M186.11,579.73c-1.06,0-1.99-0.17-2.59-0.53c-0.6-0.37-0.87-0.91-0.76-1.57c0.41-2.52,0.05-6.56,0-7.09
		c-0.3-0.49-2.65-4.42-4.19-8.8c-2.2-6.24-1.74-10.55,1.32-12.44c3.8-2.35,7.14-3.15,9.92-2.36c2.41,0.68,4.39,2.55,5.89,5.55
		c3.07,6.14,1.49,10.87,0.1,15.03l-0.09,0.26c-0.5,1.51-0.68,2.95-0.84,4.34c-0.28,2.35-0.53,4.38-2.33,5.74
		C191,579.02,188.28,579.73,186.11,579.73z M187.64,547.14c-2.19,0-4.7,0.86-7.47,2.58c-6.92,4.28,2.96,20.44,3.06,20.6l0.04,0.11
		c0.02,0.18,0.45,4.53,0,7.28c-0.08,0.46,0.1,0.8,0.52,1.06c1.63,0.99,6.37,0.26,8.46-1.31c1.64-1.23,1.87-3.16,2.14-5.4
		c0.16-1.35,0.35-2.88,0.86-4.44l0.09-0.26c1.36-4.08,2.9-8.7-0.07-14.65c-1.44-2.87-3.31-4.65-5.58-5.3
		C189.03,547.23,188.35,547.14,187.64,547.14z"/>
</g>
</svg>
